<?xml version="1.0" encoding="UTF-8" standalone="no"?>
<!-- Created with Inkscape (http://www.inkscape.org/) -->

<svg
   xmlns:dc="http://purl.org/dc/elements/1.1/"
   xmlns:cc="http://creativecommons.org/ns#"
   xmlns:rdf="http://www.w3.org/1999/02/22-rdf-syntax-ns#"
   xmlns:svg="http://www.w3.org/2000/svg"
   xmlns="http://www.w3.org/2000/svg"
   xmlns:sodipodi="http://sodipodi.sourceforge.net/DTD/sodipodi-0.dtd"
   xmlns:inkscape="http://www.inkscape.org/namespaces/inkscape"
   width="210mm"
   height="297mm"
   viewBox="0 0 210 297"
   version="1.1"
   id="svg6960"
   inkscape:version="0.92.3 (2405546, 2018-03-11)"
   sodipodi:docname="Bahae.svg"
   inkscape:export-filename="/home/yassine/Torideani/Logo/Bahae.png"
   inkscape:export-xdpi="96"
   inkscape:export-ydpi="96">
  <defs
     id="defs6954" />
  <sodipodi:namedview
     id="base"
     pagecolor="#ffffff"
     bordercolor="#666666"
     borderopacity="1.0"
     inkscape:pageopacity="0.0"
     inkscape:pageshadow="2"
     inkscape:zoom="0.35"
     inkscape:cx="-928.57143"
     inkscape:cy="560"
     inkscape:document-units="mm"
     inkscape:current-layer="layer1"
     showgrid="false"
     showborder="false"
     inkscape:window-width="1920"
     inkscape:window-height="1024"
     inkscape:window-x="0"
     inkscape:window-y="27"
     inkscape:window-maximized="1" />
  <metadata
     id="metadata6957">
    <rdf:RDF>
      <cc:Work
         rdf:about="">
        <dc:format>image/svg+xml</dc:format>
        <dc:type
           rdf:resource="http://purl.org/dc/dcmitype/StillImage" />
        <dc:title />
      </cc:Work>
    </rdf:RDF>
  </metadata>
  <g
     inkscape:label="Calque 1"
     inkscape:groupmode="layer"
     id="layer1">
    <g
       id="g2096"
       transform="translate(599.36653,644.30296)">
      <g
         id="g2065">
        <ellipse
           style="fill:#02131a;fill-opacity:1;stroke:none;stroke-width:1.11467886;stroke-linecap:round;stroke-linejoin:bevel;stroke-miterlimit:4;stroke-dasharray:none;stroke-opacity:1"
           id="path1701"
           cx="-674.20581"
           cy="-499.24939"
           rx="235.7935"
           ry="242.4669" />
      </g>
      <g
         transform="translate(496.90749,-20.953931)"
         id="g2062">
        <path
           style="fill:#777a89;fill-opacity:1;stroke:#000000;stroke-width:0.17684481px;stroke-linecap:butt;stroke-linejoin:miter;stroke-opacity:1"
           d="m -1272.2776,-360.20122 -0.6189,18.5687 4.2442,6.01273 6.9854,4.15586 6.3664,1.9453 4.1559,0.88421 4.0674,0.88424 12.2907,2.21054 6.8969,1.14951 c 0,0 6.0127,0.97263 6.5434,1.06106 0.5304,0.0884 4.2442,0.61896 4.6863,0.61896 0.4421,0 6.278,0.88421 6.278,0.88421 0,0 7.958,0 8.4885,0 0.5306,0 8.577,0.53055 8.577,0.53055 l 9.4612,-1.23791 c 0,0 6.5432,-0.97266 6.9854,-0.97266 0.442,0 9.2844,-0.70739 10.4339,-0.70739 1.1495,0 13.5286,-2.82951 13.5286,-2.82951 l 25.554,-6.54325 18.6571,-6.36643 24.7583,-10.34542 c 0,0 11.8486,-6.54325 12.2907,-6.7201 0.4421,-0.17685 7.8696,-3.97901 7.8696,-3.97901 l 6.7202,-9.37276 1.061,-2.74111 -12.7328,-13.52861 -18.834,-18.65713 -5.659,-4.33269 -3.3601,-1.68004 -0.2652,0.79581 3.8021,13.08652 -4.0675,-10.16859 -2.2104,-10.96437 -0.5307,-9.4612 -1.9452,-19.89503 -0.3537,-11.93703 -1.2379,-17.06552 -0.088,-22.90141 -0.088,-1.76845 -2.3874,4.3327 -3.7138,9.99173 -5.0401,11.40649 -5.7475,10.52227 -9.019,18.83397 -6.9854,10.257 -5.8358,8.93066 -8.5771,8.84224 -8.9306,8.04644 -8.8422,4.06743 -4.598,0.88423 h -4.9516 l -3.1832,-0.0884 -1.5033,-3.36006 -0.7073,-7.42748 -2.7411,-8.40013 -3.2716,-6.89694 -5.0402,-7.60433 -3.2716,-3.5369 -5.9243,-7.16221 -10.6991,-11.67176 -9.8149,-11.49491 -4.5095,-4.24428 -3.8021,-1.50318 -3.3601,3.00637 -2.6258,3.16511 -0.5628,1.37553 -0.063,5.37706 0.125,8.12814 -0.234,48.53622 -0.5788,5.20323 -1.2505,2.90737 -1.2655,5.24119 -1.3263,3.62532 -3.0064,3.53689 -3.8906,6.45484 -2.5642,3.1832 2.2106,-3.62532 0.4421,-1.50318 -1.7685,-0.61895 -1.5916,0.7958 -6.1012,8.13486 -5.9242,7.95803 -6.1896,8.4001 z"
           id="path1571-9"
           inkscape:connector-curvature="0" />
        <path
           style="fill:#000000;stroke:#000000;stroke-width:0.17684481px;stroke-linecap:butt;stroke-linejoin:miter;stroke-opacity:1"
           d="m -1271.7471,-350.56316 12.7329,1.94527 c 0,0 9.5495,-0.88422 10.257,-0.70737 0.7074,0.17685 6.5432,-0.53054 6.5432,-0.53054 h 10.4338 5.1286 l 17.4189,-9.1993 1.2818,-1.25047 2.5322,-0.84408 2.032,0.28136 7.9406,2.78231 4.3141,1.87573 2.6261,1.37552 0.5627,0.68778 -1.2505,0.87535 -2.8761,-0.31263 -11.2544,-4.56427 -3.0636,-0.12505 -5.002,1.87574 -5.9398,2.75106 -2.0632,0.25008 11.2543,-6.37746 1.0003,-1.93823 2.0634,-3.3138 2.4384,-3.31375 -0.8128,-7.06522 -1.5631,-6.12738 -2.2508,-11.50441 -1.8758,-9.06599 -1.7507,-9.25356 -0.8753,-2.43844 5.8148,30.01155 2.5634,11.62946 v 3.81399 l -1.188,1.12541 -2.5009,3.12621 -1.438,2.50097 -0.7504,1.93826 -11.942,5.87724 -3.814,1.93826 -3.6889,1.18798 z"
           id="path1573-1"
           inkscape:connector-curvature="0" />
        <path
           style="fill:#565564;fill-opacity:1;stroke:#000000;stroke-width:0.17684481px;stroke-linecap:butt;stroke-linejoin:miter;stroke-opacity:1"
           d="m -1197.826,-409.01038 3.9791,14.50128 3.7137,9.99173 3.2717,7.60433 4.2442,9.19591 2.6527,4.42113 2.918,2.38739 2.3874,1.59163 2.4758,0.35367 4.7748,0.61896 3.3601,-0.61896 0.7073,-1.06106 -33.8657,-49.60496 -0.7075,0.35368 z"
           id="path1575-2"
           inkscape:connector-curvature="0" />
        <path
           style="fill:#505362;fill-opacity:1;stroke:#000000;stroke-width:0.17684481px;stroke-linecap:butt;stroke-linejoin:miter;stroke-opacity:1"
           d="m -1156.2674,-363.82654 14.9434,-33.95419 c 0,0 6.1011,-11.58334 6.5432,-11.67176 0.4422,-0.0884 1.6801,-0.44212 1.6801,-0.44212 l -0.089,1.9453 -2.2989,6.45484 -7.8696,33.42367 -2.5643,2.47581 -6.8085,2.65269 h -2.9179 z"
           id="path1577-7"
           inkscape:connector-curvature="0" />
        <path
           style="fill:#535564;fill-opacity:1;stroke:#000000;stroke-width:0.17684481px;stroke-linecap:butt;stroke-linejoin:miter;stroke-opacity:1"
           d="m -1197.1185,-354.54218 6.3664,8.13488 2.299,1.94527 v 3.1832 l 2.2105,1.32633 10.876,0.0884 0.6189,-0.17682 -0.4421,-1.9453 -0.6189,-2.65269 -1.2379,-1.94529 -1.238,-0.97264 -1.7684,-0.61896 -0.619,0.0884 -0.4421,-4.68638 h -3.0948 l -1.5916,-0.53052 -2.1427,-0.8427 v 0 l -1.2505,0.87535 -2.8761,-0.31263 -4.9603,-1.31162 z"
           id="path1579-0"
           inkscape:connector-curvature="0" />
        <path
           style="fill:#4d5061;fill-opacity:1;stroke:#000000;stroke-width:0.17684481px;stroke-linecap:butt;stroke-linejoin:miter;stroke-opacity:1"
           d="m -1155.7369,-353.3927 -5.3053,7.25064 0.3537,0.97267 2.2105,-0.53057 h 6.1895 l 6.6318,-8.48852 2.4758,-2.91796 2.0338,-4.24426 0.4421,-0.70739 -2.3875,1.06106 -4.2442,3.18322 -4.8633,3.09478 -1.5031,1.41476 -0.5306,-0.70739 z"
           id="path1581-9"
           inkscape:connector-curvature="0" />
        <path
           style="fill:#f8dec6;fill-opacity:1;stroke:#000000;stroke-width:0.17684481px;stroke-linecap:butt;stroke-linejoin:bevel;stroke-opacity:1"
           d="m -1272.1894,-359.58225 0.4423,9.01909 c 0,0 4.7109,-0.52012 5.0235,-0.39505 0.3126,0.12504 1.6882,-0.25011 1.6882,-0.25011 l 6.0023,-6.81514 13.005,-15.81857 13.4426,-16.31878 0.4377,-13.56773 0.4377,-11.9421 -0.3751,-12.62986 -1.3756,-17.06908 -1.7506,-19.88267 -0.8754,-7.3153 -0.1251,-2.00078 -2.4383,1.87573 -0.5628,1.37553 -0.1718,62.04142 -0.5788,5.20322 -1.2505,2.90738 -2.5918,8.8665 -9.4612,13.17494 2.6527,-5.1285 -1.7685,-0.61895 -1.5916,0.7958 z"
           id="path1583-3"
           inkscape:connector-curvature="0" />
        <path
           style="fill:#efe3cd;fill-opacity:1;stroke:#000000;stroke-width:0.17684481px;stroke-linecap:butt;stroke-linejoin:miter;stroke-opacity:1"
           d="m -1103.5676,-501.58864 -6.4707,15.70345 3.1263,70.90232 4.7518,14.25548 0.7503,8.50328 17.8818,25.50983 3.2513,4.25161 2.3759,3.12624 2.376,3.87649 0.3751,0.37513 11.3722,-5.91222 0.01,-3.34135 -10.1289,-21.13313 -5.7523,-4.75183 -4.7518,-10.1289 -3.1599,-4.9444 -9.019,-6.01273 3.5369,13.88233 -4.0674,-10.16859 -2.2105,-10.96437 -1.8365,-9.17779 z"
           id="path1585-6"
           inkscape:connector-curvature="0" />
        <path
           style="fill:#343746;fill-opacity:1;stroke:#000000;stroke-width:0.17684481px;stroke-linecap:butt;stroke-linejoin:miter;stroke-opacity:1"
           d="m -1177.5643,-325.88609 2.9387,-5.7522 1.7507,-1.68814 v -1.18796 l -1.0317,-4.81435 -0.3126,-0.0626 -0.3127,1.12545 0.1876,2.37591 0.2189,1.46931 -1.8757,1.56311 -1.3443,1.81321 -1.2817,3.00114 0.3126,1.81322 0.8753,0.53144 z"
           id="path1587-0"
           inkscape:connector-curvature="0" />
        <path
           style="fill:#141825;fill-opacity:1;stroke:#000000;stroke-width:0.17684481px;stroke-linecap:butt;stroke-linejoin:miter;stroke-opacity:1"
           d="m -1090.9058,-355.96013 3.6263,-4.12661 3.6264,-2.75105 -1.1254,-0.5002 -5.6272,1.37552 -11.0042,2.25089 -11.0043,1.87571 -14.5055,0.37515 -3.5013,-0.87535 -3.8766,-1.75067 -3.6264,-1.50058 -2.781,-0.47077 -6.6317,4.24428 -6.3664,4.50954 -0.5306,-0.70739 2.8046,-3.5741 6.0647,-4.25167 3.1888,-1.87571 1.8132,-1.06291 4.9394,2.18834 5.7522,2.37591 5.7522,0.68778 c 0,0 4.8144,-0.62524 5.3145,-0.62524 0.5003,0 8.3158,-0.25008 8.6909,-0.37515 0.3752,-0.12504 7.3154,-1.25047 7.3154,-1.25047 l 17.5067,-3.00117 2.6885,-0.56272 0.5627,2.00078 -0.5627,1.56311 -1.6881,1.31299 -2.8762,2.31339 z"
           id="path1589-6"
           inkscape:connector-curvature="0" />
        <path
           style="fill:#1d2228;fill-opacity:1;stroke:#000000;stroke-width:0.17684481px;stroke-linecap:butt;stroke-linejoin:miter;stroke-opacity:1"
           d="m -1125.4964,-362.32336 -2.1221,-0.26528 -2.7411,-3.71371 -1.1495,-2.21057 -0.1769,-9.9033 4.7749,-23.2551 3.979,-21.75191 -1.6801,17.68448 -1.4148,6.89695 c 0,0 -1.9452,9.1075 -1.9452,9.54962 0,0.44211 -2.0338,11.67175 -2.0338,11.67175 v 6.72009 l 0.7074,3.8906 4.2443,3.71374 z"
           id="path1591-2"
           inkscape:connector-curvature="0" />
        <path
           style="fill:#00040b;fill-opacity:1;stroke:#000000;stroke-width:0.17684481px;stroke-linecap:butt;stroke-linejoin:miter;stroke-opacity:1"
           d="m -1239.213,-471.31707 -0.8789,-58.03622 6.3665,13.08653 29.0025,29.00255 21.5751,17.15395 3.0064,1.94529 4.4211,1.94529 8.8422,0.17685 2.299,-1.06107 23.1667,-18.21501 24.2277,-23.34352 7.2506,-9.19593 7.6044,-17.15396 -1.2379,33.42368 -6.4707,15.70345 -5.1569,11.00012 -6.2338,11.40649 -5.1727,10.78754 -2.8737,6.18956 -12.8212,19.18766 -17.5077,16.88868 -8.8422,4.06743 -4.598,0.88423 -8.1348,-0.0884 -1.5033,-3.36006 -0.7073,-7.42748 -2.7411,-8.40013 -3.2716,-6.89694 -5.0402,-7.60433 -29.7099,-33.86578 -4.5095,-4.24428 -3.8021,-1.50318 -3.3601,3.00637 -2.6258,3.16511 z"
           id="path1593-6"
           inkscape:connector-curvature="0" />
        <path
           style="fill:#151827;fill-opacity:1;stroke:#000000;stroke-width:0.17684481px;stroke-linecap:butt;stroke-linejoin:miter;stroke-opacity:1"
           d="m -1174.9245,-575.1119 c -0.4421,0 -1.7242,0.13263 -1.9453,0.22105 -0.2211,0.0884 -0.9726,0.48636 -1.2379,0.53052 -0.2653,0.0442 -1.0611,0.3537 -1.0611,0.3537 l -1.2821,2.12215 0.3095,0.75158 h 1.1053 l 1.3705,-0.79579 0.84,-0.84002 1.1053,-0.0884 1.7242,0.61895 0.1326,-0.97264 -0.044,-1.90108 z m 8.5328,0.0884 -0.7516,0.53054 -0.3979,0.22106 v 1.19368 l 0.044,0.44212 1.1938,0.53054 0.1326,-0.26527 0.3095,-0.30947 h 1.2821 l 0.7074,-0.26527 0.7516,0.7958 0.5747,1.06107 1.0611,0.17684 0.5747,-0.7958 0.088,-1.50318 -1.2379,-1.01686 c 0,0 -0.7958,-0.3979 -1.0169,-0.48632 -0.221,-0.0884 -1.061,-0.17687 -1.2379,-0.22106 -0.1768,-0.0442 -1.061,-10e-6 -1.4589,-0.0442 -0.3979,-0.0442 -0.619,-0.0442 -0.619,-0.0442 z m -8.5466,35.99276 -10.2539,1.50076 -9.7538,3.25126 -0.375,1.1253 0.8751,0.87526 9.1286,-3.37628 c 0,0 5.1271,-1.25041 5.6273,-1.12533 0.5002,0.12505 7.5028,-0.62517 7.5028,-0.62517 h 7.6281 3.8765 l 5.2518,1.12531 8.3783,2.75111 1.1253,0.50014 0.5002,-1.62545 -2.0006,-0.62552 -6.3774,-1.87552 -7.3778,-1.87587 z m -10.1548,9.67741 -1.5916,0.70738 3.5369,1.23792 5.4822,2.82951 3.5368,2.29899 4.9518,0.70738 1.9452,-0.35369 0.5306,-0.17685 v -1.06106 l 5.659,-2.65268 1.0611,-1.23791 0.3537,-1.23791 -0.7075,-0.88424 z"
           id="path1595-1"
           inkscape:connector-curvature="0" />
        <path
           style="fill:#e9c8b5;fill-opacity:1;stroke:#000000;stroke-width:0.17684481px;stroke-linecap:butt;stroke-linejoin:miter;stroke-opacity:1"
           d="m -1254.3438,-610.3081 1.1255,4.50172 2.0007,4.50175 3.2512,4.25162 1.0004,2.626 16.2563,77.52987 0.3752,2.00076 -3.3909,-1.37038 -6.3665,-13.08653 -12.3762,-52.81899 -2.876,-22.63372 z"
           id="path1599-8"
           inkscape:connector-curvature="0" />
        <path
           style="fill:#f5ddc2;fill-opacity:1;stroke:#000000;stroke-width:0.17684481px;stroke-linecap:butt;stroke-linejoin:miter;stroke-opacity:1"
           d="m -1109.9341,-517.85836 8.4886,-72.32953 4.2443,-8.84224 3.36,4.95164 2.6527,1.59162 -8.1348,40.49746 14.1475,-30.771 3.1832,-6.54325 2.299,-9.72647 4.2443,-3.00636 4.2442,-0.53054 3.7138,12.55599 0.1768,4.59797 -1.9452,0.35367 -1.9454,-9.54961 -1.5915,-2.29899 -1.9454,1.06108 -4.9516,7.958 -4.0675,9.37279 -0.3536,5.30535 0.7074,2.47582 -6.5433,9.54961 v 2.47584 l -10.4338,15.73919 0.1768,2.12214 1.4147,4.42111 v 0.70738 l -3.5368,0.7074 z"
           id="path1601-7"
           inkscape:connector-curvature="0" />
        <path
           style="fill:#030804;fill-opacity:1;stroke:#000000;stroke-width:0.17684481px;stroke-linecap:butt;stroke-linejoin:miter;stroke-opacity:1"
           d="m -1089.9506,-558.70951 -3.0064,11.67176 0.2653,2.47582 1.5916,1.14949 1.5916,-1.9453 0.7959,-2.91792 0.088,-1.68004 1.0611,-1.5916 5.8359,-1.76844 1.2379,-3.09479 0.3536,-1.68003 -0.9726,-1.76844 0.5306,-2.65268 0.6189,-2.3874 -0.2652,-1.76845 -0.8843,-0.88424 -0.088,1.06108 -0.1768,1.32634 -0.7959,2.03372 -2.2105,1.59161 -2.8296,2.12213 z"
           id="path1603-9"
           inkscape:connector-curvature="0" />
        <path
           style="fill:#777c87;fill-opacity:1;stroke:#000000;stroke-width:0.17684481px;stroke-linecap:butt;stroke-linejoin:miter;stroke-opacity:1"
           d="m -1076.3377,-590.48798 3.9389,11.37938 -0.125,3.56388 -3.2513,3.37629 -3.5638,2.87611 h -1.8132 l -1.063,-2.50095 -0.25,-3.12621 1.3755,0.62524 1.0003,0.31262 1.3131,-0.31262 2.1258,-0.75028 -0.125,-1.25049 -1.2505,-0.12505 -0.6878,0.81281 -1.7506,0.2501 -1.438,-0.2501 -0.5628,-1.00039 0.5628,-1.87572 1.1878,-2.12582 0.5628,-2.81357 0.5627,-0.56273 0.8753,1.62563 1.063,0.12504 0.8127,-0.37514 -0.1249,-1.18796 -0.063,-1.25048 -1.313,-0.31261 -1.2505,-0.31263 2.5009,-4.25162 z"
           id="path1605-2"
           inkscape:connector-curvature="0" />
        <path
           style="fill:#030804;fill-opacity:1;stroke:#000000;stroke-width:0.17684481px;stroke-linecap:butt;stroke-linejoin:miter;stroke-opacity:1"
           d="m -1078.2135,-555.53703 1.4381,-2.626 0.6252,-3.37629 0.5627,-2.06332 0.3752,-3.25123 -0.6253,-1.25048 -1.3755,-0.5002 -1.7507,0.75029 -1.2603,1.18673 -0.8843,-0.88424 -1.0611,-1.30421 -0.2431,-1.45897 -0.5748,-1.39267 -0.3978,-1.43686 -0.044,-2.60845 c 0,0 0.221,-2.10004 0.2431,-2.23266 0.022,-0.13264 0.42,-1.68004 0.42,-1.68004 l 2.724,-6.88332 3.2043,-5.37708 2.0961,-3.92089 v 0 0 l 0.4206,-0.0337 0.015,5.48648 2.8449,7.72174 1.3129,4.50173 -0.3125,2.81357 -2.4386,1.93826 -0.25,1.37552 0.3126,0.93786 0.4377,-0.18756 -0.2501,4.37668 -0.8754,4.6893 -1.6255,4.43922 -1.6257,3.06368 -1.063,0.0626 z"
           id="path1607-0"
           inkscape:connector-curvature="0" />
        <path
           style="fill:#777c87;fill-opacity:1;stroke:#000000;stroke-width:0.17684481px;stroke-linecap:butt;stroke-linejoin:miter;stroke-opacity:1"
           d="m -1075.65,-591.30079 3.939,11.37939 -0.125,3.56388 -3.2513,3.37629 -3.5638,2.87611 h -1.8132 l -1.063,-2.50096 -0.25,-3.1262 1.3755,0.62523 1.0003,0.31262 1.3131,-0.31262 2.1258,-0.75028 -0.125,-1.25051 -1.2506,-0.12503 -0.6877,0.81281 -1.7506,0.2501 -1.4381,-0.2501 -0.5627,-1.00039 0.5627,-1.87572 1.1879,-2.12582 0.5627,-2.81357 0.5628,-0.56273 0.8753,1.62563 1.063,0.12503 0.8127,-0.37512 -0.125,-1.18798 -0.063,-1.25046 -1.313,-0.31261 -1.2505,-0.31263 2.5009,-4.25164 z"
           id="path1605-3-2"
           inkscape:connector-curvature="0" />
        <path
           style="fill:#76808c;fill-opacity:1;stroke:#000000;stroke-width:0.17684481px;stroke-linecap:butt;stroke-linejoin:miter;stroke-opacity:1"
           d="m -1098.7929,-535.71969 3.1352,1.94104 6.6275,-1.37552 7.1279,-6.37745 13.1299,-14.38054 3.2513,-4.50173 0.7503,-3.25127 -1.7921,-20.95211 -0.7516,-0.7958 -1.9452,0.35367 -1.9454,-9.54961 -1.5915,-2.29899 -1.5247,1.02734 0.015,5.48648 4.1578,12.22346 -0.3126,2.81358 -2.4384,1.93826 -0.25,1.37552 0.3125,0.93786 0.4377,-0.18757 -0.2501,4.37669 -0.8754,4.6893 -1.6256,4.43921 -1.6256,3.06368 -1.0629,0.0626 -0.375,-0.87538 1.4382,-2.626 1.563,-8.69083 -0.6253,-1.25051 -1.3755,-0.50018 -1.7507,0.75028 -1.2602,1.18673 0.2652,1.76845 -1.1496,5.04009 0.9726,1.76843 c 0,0 -1.5915,4.77482 -1.5915,4.77482 l -5.8359,1.76844 -1.0611,1.5916 -0.088,1.68005 -0.7959,2.91792 -1.5915,1.94532 -1.5917,-1.1495 -0.2652,-2.47584 3.0063,-11.67176 -10.4337,15.73921 0.1767,2.12213 1.4148,4.42111 z"
           id="path1624-3"
           inkscape:connector-curvature="0" />
        <path
           style="fill:#82807c;fill-opacity:1;stroke:#000000;stroke-width:0.17684481px;stroke-linecap:butt;stroke-linejoin:miter;stroke-opacity:1"
           d="m -1076.0682,-593.10583 -3.974,6.55689 -2.724,6.88331 -0.6632,3.9127 0.044,2.60845 0.3979,1.43686 0.5747,1.39268 0.2432,1.45896 1.0611,1.30421 -0.2652,2.38744 -0.7959,2.03371 -5.0401,3.71375 -2.741,0.70738 -10e-5,-2.47586 6.5434,-9.54961 -0.7075,-2.47581 0.3537,-5.30534 4.0674,-9.37281 3.3159,-5.34954 z"
           id="path1626-7"
           inkscape:connector-curvature="0" />
        <path
           style="fill:#797c8d;fill-opacity:1;stroke:#000000;stroke-width:0.17684481px;stroke-linecap:butt;stroke-linejoin:miter;stroke-opacity:1"
           d="m -1241.0886,-647.32225 -5.2521,11.87934 -0.1251,7.25306 -1.1253,5.25179 -0.8753,8.62842 1.0003,4.62665 1.7505,2.50105 4.0018,5.3772 5.1268,2.87614 5.3771,2.2506 v 1.12567 l -3.2512,0.25006 -5.2522,-2.37599 -5.1268,-4.25155 -3.0012,-4.00179 0.6253,4.50196 2.0009,4.25152 3.1261,3.37628 2.1257,0.87524 0.3751,1.00063 -1.3755,-0.12503 -2.2509,-0.50015 -3.7514,-1.87587 14.3804,68.76741 v 7.9e-4 l -1.1398,9.39211 23.6088,23.60878 29.9752,24.49301 4.4211,1.94529 8.8423,0.17684 3.9444,-2.46061 21.5212,-16.81547 24.2277,-23.34351 7.2506,-9.19593 8.4886,-72.32952 4.2443,-8.84225 -0.4573,-3.64983 -1.3754,-2.50105 -0.2501,-10.37893 -1.1256,0.50015 -5.3769,10.87905 -3.0012,3.25126 -1.6258,1.37573 -0.125,-2.12594 1.0006,-4.37691 0.6252,-3.12622 -0.5001,-1.37539 -2.7511,1.62581 -8.2534,0.50014 -12.1297,-0.50014 -8.003,-0.75056 -7.5027,-0.62517 -4.2519,-2.12558 -3.0012,-2.87615 -6.5025,14.75549 -2.0005,7.75319 -4.3766,6.00201 -2.376,1.50077 0.8752,-5.12712 -0.6252,-7.00265 -0.7502,-6.75257 -2.251,-2.37599 -9.3786,12.62989 -11.5045,8.8785 -0.7503,-1.87586 10.629,-9.75375 8.3784,-13.13004 0.3751,-3.75139 -2.8762,-3.75139 -4.2515,8.87851 -4.6266,6.25243 -3.1262,2.25062 -2.8762,0.87559 6.5026,-7.87823 5.2518,-12.37982 0.25,-3.00118 -1.5004,-0.7502 -4.3765,7.00264 -2.001,0.87558 0.3752,-2.87616 3.7513,-3.75136 0.8752,-3.00119 -11.3792,-4.62698 -2.0008,-0.37511 5.6272,11.00446 0.6252,2.50068 -7.5028,-9.50367 -3.2512,-3.50134 -3.2513,-3.37628 -2.251,-0.7502 -2.1255,0.25006 2.3756,7.50279 -0.7501,1.2507 -2.5011,-5.62727 -0.8753,-2.62608 -2.5011,-0.37511 3.0013,8.1283 v 0.87525 l -4.0015,-7.12766 -0.5001,-1.50078 -5.7523,0.12505 -1.6255,0.25006 0.25,8.87851 -0.6772,2.82123 2.2558,-0.47492 -0.057,0.47353 -1.4003,11.53706 -7.4365,0.0234 -8.1279,-0.6877 -4.1891,-1.93803 0.2501,-0.93811 1.8755,-0.81273 4.2519,-2.12593 4.1265,-1.50043 -6.2524,-11.3792 -1.1253,-7.25305 -0.7505,-5.37685 -1.2505,-4.12683 z m 17.8299,26.70528 -0.9582,0.20172 0.2598,0.97853 0.6251,-0.87526 z m -0.9582,0.20172 -1.3657,-5.14889 -0.7501,-4.75165 -1.2508,-1.50042 -0.6252,4.25152 -0.8752,3.37629 -0.3755,4.87669 z"
           id="path1628-5"
           inkscape:connector-curvature="0" />
        <path
           style="fill:none;stroke:#000000;stroke-width:0.17684481px;stroke-linecap:butt;stroke-linejoin:miter;stroke-opacity:1"
           d="m -1230.3345,-514.89638 -3.3909,-1.37038 26.3499,25.99619"
           id="path1666-9"
           inkscape:connector-curvature="0" />
        <path
           style="fill:#bfebef;fill-opacity:1;stroke:#000000;stroke-width:0.17684481px;stroke-linecap:butt;stroke-linejoin:miter;stroke-opacity:1"
           d="m -1241.9639,-612.62164 18.6319,-7.69035 2.3291,-0.77988 c 0,0 12.6768,0.40478 13.177,0.40478 0.5002,0 6.3775,0 6.3775,0 l 7.0027,5.5021 0.2501,2.50095 -3.6264,0.25012 -10.6292,0.75028 -9.2534,0.87533 -15.131,-0.37514 z"
           id="path1669-2"
           inkscape:connector-curvature="0" />
        <path
           style="fill:#ccf0f9;fill-opacity:1;stroke:#000000;stroke-width:0.17684481px;stroke-linecap:butt;stroke-linejoin:miter;stroke-opacity:1"
           d="m -1152.3046,-612.43375 5.6273,-4.00173 4.3766,-1.00036 h 2.8762 4.2516 5.8772 l 6.7526,1.37551 6.6276,1.12543 4.7519,1.87571 1.7508,2.50095 -11.0045,2.12594 -27.6354,-1.87586 z"
           id="path1671-2"
           inkscape:connector-curvature="0" />
        <path
           inkscape:connector-curvature="0"
           style="fill:#151827;fill-opacity:1;stroke:#000000;stroke-width:0.17684481px;stroke-linecap:butt;stroke-linejoin:miter;stroke-opacity:1"
           d="m -1174.9245,-575.1119 c -0.4421,0 -1.7242,0.13262 -1.9453,0.22104 -0.2211,0.0884 -0.9726,0.48639 -1.2379,0.53057 -0.2653,0.0441 -1.0611,0.35365 -1.0611,0.35365 l -1.2821,2.12213 0.3095,0.75161 h 1.1052 l 1.3706,-0.79579 0.84,-0.84002 1.1053,-0.0884 1.7242,0.61899 0.1326,-0.97264 -0.044,-1.9011 z m 8.5327,0.0884 -0.7515,0.5305 -0.398,0.22111 v 1.19367 l 0.044,0.44214 1.1937,0.5305 0.1327,-0.26528 0.3095,-0.30946 h 1.2821 l 0.7073,-0.26529 0.7517,0.79585 0.5747,1.06107 1.0611,0.1768 0.5748,-0.79579 0.088,-1.50314 -1.2379,-1.01689 c 0,0 -0.7959,-0.39789 -1.0169,-0.48632 -0.2211,-0.0884 -1.0611,-0.17686 -1.2379,-0.22104 -0.1768,-0.0441 -1.0611,-7e-5 -1.459,-0.0441 -0.3979,-0.0441 -0.619,-0.0441 -0.619,-0.0441 z m -8.5465,35.99275 -10.2539,1.50076 -9.7538,3.25126 -0.3751,1.1253 0.8752,0.87526 9.1286,-3.37628 c 0,0 5.1271,-1.2504 5.6273,-1.12533 0.5002,0.12505 7.5027,-0.62517 7.5027,-0.62517 h 7.6282 3.8764 l 5.2519,1.12531 8.3783,2.75111 1.1253,0.50013 0.5002,-1.62544 -2.0006,-0.62552 -6.3775,-1.87554 -7.3777,-1.87585 z m -10.1548,9.67741 -1.5916,0.70737 3.5369,1.23793 5.4822,2.82951 3.5368,2.29898 4.9517,0.70739 1.9453,-0.35369 0.5306,-0.17685 v -1.06106 l 5.659,-2.65268 1.0611,-1.23791 0.3536,-1.23791 -0.7074,-0.88424 z"
           id="path1595-2-8" />
      </g>
    </g>
  </g>
</svg>
