<?xml version="1.0" encoding="UTF-8" standalone="no"?>
<!-- Created with Inkscape (http://www.inkscape.org/) -->

<svg
   xmlns:dc="http://purl.org/dc/elements/1.1/"
   xmlns:cc="http://creativecommons.org/ns#"
   xmlns:rdf="http://www.w3.org/1999/02/22-rdf-syntax-ns#"
   xmlns:svg="http://www.w3.org/2000/svg"
   xmlns="http://www.w3.org/2000/svg"
   xmlns:sodipodi="http://sodipodi.sourceforge.net/DTD/sodipodi-0.dtd"
   xmlns:inkscape="http://www.inkscape.org/namespaces/inkscape"
   width="210mm"
   height="297mm"
   viewBox="0 0 210 297"
   version="1.1"
   id="svg2591"
   inkscape:version="0.92.3 (2405546, 2018-03-11)"
   sodipodi:docname="Yassine.svg">
  <defs
     id="defs2585" />
  <sodipodi:namedview
     id="base"
     pagecolor="#ffffff"
     bordercolor="#666666"
     borderopacity="1.0"
     inkscape:pageopacity="0.0"
     inkscape:pageshadow="2"
     inkscape:zoom="0.24748737"
     inkscape:cx="-369.16615"
     inkscape:cy="713.3222"
     inkscape:document-units="mm"
     inkscape:current-layer="layer1"
     showgrid="false"
     showborder="false"
     inkscape:window-width="1680"
     inkscape:window-height="1021"
     inkscape:window-x="0"
     inkscape:window-y="0"
     inkscape:window-maximized="1" />
  <metadata
     id="metadata2588">
    <rdf:RDF>
      <cc:Work
         rdf:about="">
        <dc:format>image/svg+xml</dc:format>
        <dc:type
           rdf:resource="http://purl.org/dc/dcmitype/StillImage" />
        <dc:title></dc:title>
      </cc:Work>
    </rdf:RDF>
  </metadata>
  <g
     inkscape:label="Calque 1"
     inkscape:groupmode="layer"
     id="layer1">
    <g
       id="g2562"
       transform="translate(2919.8793,325.55038)">
      <ellipse
         ry="242.4669"
         rx="235.7935"
         cy="-268.94324"
         cx="-2986.4031"
         id="path1701-9-1"
         style="fill:#02131a;fill-opacity:1;stroke:none;stroke-width:1.11467886;stroke-linecap:round;stroke-linejoin:bevel;stroke-miterlimit:4;stroke-dasharray:none;stroke-opacity:1" />
      <path
         inkscape:connector-curvature="0"
         id="path2220-2"
         d="m -3073.6396,-346.22551 17.1962,-40.4739 -3.3553,-30.61758 3.3553,-9.43693 1.468,-1.46796 25.3748,-3.77477 -1.2583,2.5165 -9.2272,5.24275 0.8389,1.04855 3.3553,0.41942 41.9419,-10.48547 -0.4194,1.46796 -2.7262,3.35535 -18.035,6.92041 0.6291,0.83883 1.8874,0.20971 23.2777,-2.72621 48.6526,-15.5185 1.6777,1.04854 24.536,8.38839 -2.0971,43.82926 19.0836,37.53798 1.8873,1.04854 8.5981,-8.38838 3.3554,-0.62913 0.4194,10.48547 -1.6777,12.16316 -8.598,17.82531 -6.2914,1.25826 0.6292,-7.54954 -1.8874,-0.2097 -8.8078,47.39432 -56.6216,44.2487 -33.1341,0.62912 -63.1225,-45.08753 -3.565,-7.54955 -5.2428,-39.00594 0.6292,7.54951 -9.0175,-1.04852 -8.1787,-18.87385 -1.468,-22.01951 2.9359,-1.67767 2.0971,0.83884 9.8564,10.48547 z"
         style="opacity:1;fill:#f1f1d8;fill-opacity:1;stroke:#000000;stroke-width:0.26901826;stroke-linecap:butt;stroke-linejoin:miter;stroke-miterlimit:4;stroke-dasharray:none;stroke-opacity:1" />
      <path
         inkscape:connector-curvature="0"
         id="path2286-7"
         d="m -3021.9606,-392.18167 -1.0485,-10.80003 9.7515,1.57282 1.0485,-1.25826 -10.066,-18.87385 -2.7262,-1.36311 4.4039,13.63111 -8.8078,-1.36311 -1.3631,0.73398 -0.5243,0.83884 8.1787,18.03501 1.468,0.31457 z"
         style="fill:#20ac35;fill-opacity:1;stroke:#000000;stroke-width:0.26901826;stroke-linecap:butt;stroke-linejoin:miter;stroke-miterlimit:4;stroke-dasharray:none;stroke-opacity:1" />
      <g
         transform="matrix(0.1793455,0,0,0.1793455,-2237.9226,-118.35913)"
         id="g2218-0-2">
        <path
           style="fill:#000000;fill-opacity:1;stroke:none;stroke-width:1.56286955;stroke-linecap:round;stroke-linejoin:bevel;stroke-miterlimit:4;stroke-dasharray:none;stroke-opacity:1"
           d="m -3931.3781,-1485.6302 a 168.67186,160.40365 0 0 0 -168.6719,160.4036 168.67186,160.40365 0 0 0 168.6719,160.4036 168.67186,160.40365 0 0 0 168.6719,-160.4036 168.67186,160.40365 0 0 0 -168.6719,-160.4036 z m -1.1015,19.976 a 149.73932,138.90625 0 0 1 149.7393,138.9063 149.73932,138.90625 0 0 1 -149.7393,138.9062 149.73932,138.90625 0 0 1 -149.7393,-138.9062 149.73932,138.90625 0 0 1 149.7393,-138.9063 z"
           id="path2177-9-4-2"
           inkscape:connector-curvature="0" />
        <path
           style="fill:#000000;fill-opacity:1;stroke:none;stroke-width:1.53191853;stroke-linecap:round;stroke-linejoin:bevel;stroke-miterlimit:4;stroke-dasharray:none;stroke-opacity:1"
           d="m -4400.4176,-1483.9765 a 162.05728,160.40365 0 0 0 -162.0573,160.4036 162.05728,160.40365 0 0 0 162.0573,160.4036 162.05728,160.40365 0 0 0 162.0573,-160.4036 162.05728,160.40365 0 0 0 -162.0573,-160.4036 z m -1.0583,19.976 a 143.86719,138.90625 0 0 1 143.8672,138.9063 143.86719,138.90625 0 0 1 -143.8672,138.9062 143.86719,138.90625 0 0 1 -143.8672,-138.9062 143.86719,138.90625 0 0 1 143.8672,-138.9063 z"
           id="path2177-9-5-8-6"
           inkscape:connector-curvature="0" />
        <rect
           style="fill:#000000;fill-opacity:1;stroke:none;stroke-width:1.50596368;stroke-linecap:round;stroke-linejoin:bevel;stroke-miterlimit:4;stroke-dasharray:none;stroke-opacity:1"
           id="rect2213-7-1"
           width="156.81264"
           height="25.87368"
           x="-4249.8696"
           y="-1366.5123" />
      </g>
      <path
         inkscape:connector-curvature="0"
         id="path2312-0"
         d="m -3056.4925,-228.12761 0.074,-41.96522 56.8062,40.46578 33.1341,-0.62912 50.5616,-39.16935 -0.074,41.81692 -60.5011,46.78453 h -12.7527 z"
         style="opacity:1;fill:#f2f3dd;fill-opacity:1;stroke:#000000;stroke-width:0.26901826;stroke-linecap:butt;stroke-linejoin:miter;stroke-miterlimit:4;stroke-dasharray:none;stroke-opacity:1" />
      <path
         inkscape:connector-curvature="0"
         id="path2314-6"
         d="m -3056.4925,-228.12761 -6.2281,27.4331 44.4861,57.38704 28.9901,-37.5166 z"
         style="fill:#ffffff;fill-opacity:1;stroke:#000000;stroke-width:0.04745183px;stroke-linecap:butt;stroke-linejoin:miter;stroke-opacity:1" />
      <path
         inkscape:connector-curvature="0"
         id="path2316-1"
         d="m -2976.4917,-180.82407 26.9141,34.84744 42.1135,-56.64561 -7.192,-25.24586 z"
         style="fill:#ffffff;fill-opacity:1;stroke:#000000;stroke-width:0.04745183px;stroke-linecap:butt;stroke-linejoin:miter;stroke-opacity:1" />
      <path
         inkscape:connector-curvature="0"
         id="path2318-5"
         d="m -2989.2444,-180.82407 h 12.7527 l 20.4848,26.45291 -16.5671,18.13986 -20.9709,0.20971 -16.0428,-16.8816 z"
         style="fill:#8c0504;fill-opacity:1;stroke:#000000;stroke-width:0.04745183px;stroke-linecap:butt;stroke-linejoin:miter;stroke-opacity:1" />
      <path
         inkscape:connector-curvature="0"
         id="path2320-9"
         d="m -2989.2444,-180.82407 31.1404,28.86457 -1.0011,0.9782 -31.3627,-28.35989 z"
         style="fill:#eeb09b;fill-opacity:1;stroke:#000000;stroke-width:0.04745183px;stroke-linecap:butt;stroke-linejoin:miter;stroke-opacity:1" />
      <path
         inkscape:connector-curvature="0"
         id="path2322-4"
         d="m -2992.3915,-176.39065 30.3293,28.78262 1.2844,-1.59904 -30.5426,-28.72539 z"
         style="fill:#eeb09b;fill-opacity:1;stroke:#000000;stroke-width:0.04745183px;stroke-linecap:butt;stroke-linejoin:miter;stroke-opacity:1" />
      <path
         inkscape:connector-curvature="0"
         id="path2324-9"
         d="m -2999.7837,-166.27217 28.3107,28.7302 -1.101,1.31067 h -1.4155 l -27.2622,-28.20592 z"
         style="fill:#dc988a;fill-opacity:1;stroke:#000000;stroke-width:0.04745183px;stroke-linecap:butt;stroke-linejoin:miter;stroke-opacity:1" />
      <path
         inkscape:connector-curvature="0"
         id="path2326-0"
         d="m -3005.8653,-157.7265 c 0.2097,0.15727 19.6078,21.75735 19.6078,21.75735 l 4.7185,-0.10486 -22.4913,-24.27386 z"
         style="fill:#f1b574;fill-opacity:1;stroke:#000000;stroke-width:0.04745183px;stroke-linecap:butt;stroke-linejoin:miter;stroke-opacity:1" />
      <path
         inkscape:connector-curvature="0"
         id="path2328-9"
         d="m -3016.9799,-142.47016 7.3922,-10.43303 16.0428,16.8816 -8.8078,11.58645 z"
         style="fill:#f7f0ee;fill-opacity:1;stroke:#000000;stroke-width:0.04745183px;stroke-linecap:butt;stroke-linejoin:miter;stroke-opacity:1" />
      <path
         inkscape:connector-curvature="0"
         id="path2330-1"
         d="m -2972.574,-136.2313 7.4971,11.27188 15.4993,-21.01721 -6.4293,-8.39453 z"
         style="fill:#f7f0ee;fill-opacity:1;stroke:#000000;stroke-width:0.04745183px;stroke-linecap:butt;stroke-linejoin:miter;stroke-opacity:1" />
      <path
         inkscape:connector-curvature="0"
         id="path2332-7"
         d="m -2993.1255,-112.95354 19.136,-23.27776 h 1.4155 l 0.3146,0.49806 -20.0249,25.12306 -0.7414,-0.66729 z"
         style="fill:#d6a188;fill-opacity:1;stroke:#000000;stroke-width:0.04745183px;stroke-linecap:butt;stroke-linejoin:miter;stroke-opacity:1" />
      <path
         inkscape:connector-curvature="0"
         id="path2334-7"
         d="m -2985.389,-102.9734 18.1652,-25.0605 -3.7072,-5.85733 -19.3514,25.0605 z"
         style="fill:#eeae09;fill-opacity:1;stroke:#000000;stroke-width:0.04745183px;stroke-linecap:butt;stroke-linejoin:miter;stroke-opacity:1" />
      <path
         inkscape:connector-curvature="0"
         id="path2336-1"
         d="m -3067.8736,-194.98546 -0.2595,-0.81559 v -0.74143 l 0.2966,-0.37071 0.2966,-0.25951 0.7043,-0.0741 0.7044,-0.0371 h 0.3707 l 0.1854,0.70436 0.074,0.59315 82.7071,102.095578 76.7502,-106.092138 0.2098,-0.41943 1.1534,-0.15727 1.2058,0.73397 0.2097,0.83885 -1.3107,1.62525 -76.3275,107.066717 -0.5561,0.333655 -0.7044,0.259495 -0.4078,-0.03707 h -0.7414 l -0.8156,-0.556079 -0.1853,-0.296565 -0.2225,-0.444867 z"
         style="fill:#d9b36f;fill-opacity:1;stroke:#000000;stroke-width:0.04745183px;stroke-linecap:butt;stroke-linejoin:miter;stroke-opacity:1" />
      <path
         inkscape:connector-curvature="0"
         id="path2338-1"
         d="m -3002.3527,-124.43514 8.8078,-11.58645 19.5554,-0.20971 -19.136,23.27776 0.1,1.67607 0.7414,0.66729 20.0249,-25.12306 1.3284,1.84201 -19.3514,25.0605 4.8934,5.85733 18.1652,-25.0605 2.2418,3.07448 57.5179,-77.66282 1.6302,2.21985 -76.96,106.511568 -82.7071,-102.095578 -0.2595,-1.29751 3.0399,-3.4106 z"
         style="fill:#870105;fill-opacity:1;stroke:#000000;stroke-width:0.04745183px;stroke-linecap:butt;stroke-linejoin:miter;stroke-opacity:1" />
      <path
         inkscape:connector-curvature="0"
         id="path2340-5"
         d="m -3016.7833,-142.72574 -0.9634,-1.19927 27.2789,-35.41618 0.095,0.12275 z"
         style="fill:#ffffff;fill-opacity:1;stroke:#000000;stroke-width:0;stroke-linecap:butt;stroke-linejoin:miter;stroke-miterlimit:4;stroke-dasharray:none;stroke-opacity:1" />
      <path
         inkscape:connector-curvature="0"
         d="m -3015.0288,-147.63931 c -0.01,0.20288 0.021,0.40513 0.039,0.60684 0.01,0.18126 0.036,0.36292 0.019,0.54431 -0.032,0.24129 -0.5009,0.5679 -0.5832,0.28715 -0.021,-0.0722 -0.013,-0.16297 -0.016,-0.23686 0,-0.19909 0.044,-0.39449 0.073,-0.59055 0,-0.0256 0.01,-0.0512 0.01,-0.0768 0,0 0.5482,-0.27099 0.5482,-0.27099 v 0 c 0,0.0263 -0.01,0.0526 -0.01,0.0788 -0.028,0.19341 -0.083,0.38441 -0.08,0.58094 0,0.0678 0.01,0.1014 0.013,0.16666 0,0.0161 0.01,0.032 0.01,0.0483 0,0.003 -0.01,-0.005 -0.01,-0.003 -0.1762,0.1031 -0.3473,0.21493 -0.525,0.31527 -0.01,0.005 0.011,-0.0187 0.016,-0.0281 0.045,-0.17121 0,-0.36237 0,-0.5368 -0.017,-0.20128 -0.046,-0.40121 -0.059,-0.60275 0,0 0.554,-0.28227 0.554,-0.28227 z"
         id="path2342-9"
         style="opacity:0.75199998;fill:#ffffff;fill-opacity:1;stroke:none;stroke-width:0;stroke-linecap:round;stroke-linejoin:bevel;stroke-miterlimit:4;stroke-dasharray:none;stroke-opacity:1" />
      <path
         inkscape:connector-curvature="0"
         d="m -3015.4648,-146.86937 c 0.08,-0.56231 0.1957,-1.11831 0.3236,-1.67145 0.062,-0.25078 0.1129,-0.50394 0.1724,-0.75521 0.01,-0.0385 0.019,-0.0769 0.029,-0.11503 0,-0.0161 0,-0.0397 0.016,-0.0477 0.1837,-0.0998 0.3778,-0.17933 0.5667,-0.269 0.01,0.0298 0.014,0.0592 0.016,0.0895 0.01,0.0851 -0.01,0.21608 -0.015,0.29653 -0.02,0.18975 -0.056,0.37524 -0.094,0.56205 -0.036,0.15879 -0.081,0.31542 -0.1219,0.4732 -0.02,0.0786 -0.043,0.15801 -0.052,0.23886 0,-0.21699 0.01,0.004 -0.5142,0.23128 -0.026,0.0115 0.044,-0.0376 0.063,-0.059 0.087,-0.0965 0.1535,-0.21199 0.2219,-0.32182 0.022,-0.0394 0.045,-0.0783 0.066,-0.11826 0,0 0.1029,-0.21766 0.1078,-0.21995 0.6024,-0.28351 0.6018,-0.43382 0.5462,-0.13794 -0.1223,0.42905 -0.2678,0.85089 -0.4128,1.2726 -0.022,0.0682 -0.044,0.13638 -0.066,0.20471 -0.017,0.0529 -0.033,0.10606 -0.05,0.15913 -0.01,0.0316 -0.021,0.0631 -0.03,0.095 0,0.009 0,0.0239 -0.01,0.0272 -0.6091,0.23675 -0.6109,0.36992 -0.5131,0.0559 0.1526,-0.41625 0.3015,-0.83428 0.4322,-1.25795 0.012,-0.0463 0.026,-0.0922 0.037,-0.13878 0.01,-0.0303 0.013,-0.0609 0.018,-0.0917 0,-0.014 -0.011,-0.0466 0,-0.0423 0.015,0.005 0,0.0532 0.012,0.0469 0.4955,-0.21182 0.6114,-0.45026 0.4839,-0.2153 -0.01,0.0223 -0.019,0.0444 -0.027,0.067 -0.01,0.0223 -0.015,0.0449 -0.022,0.0677 0,0.0136 -0.01,0.0275 -0.01,0.0415 0,0.002 0,0.004 0,0.005 -0.5805,0.24179 -0.6367,0.39166 -0.495,0.1299 0.11,-0.22268 0.2233,-0.44332 0.3448,-0.65999 0,0 0.5299,-0.23667 0.5299,-0.23667 v 0 c -0.1184,0.20984 -0.2296,0.4234 -0.3222,0.64615 -0.1255,0.28688 -0.014,0.0817 -0.6244,0.39157 0,0.002 0,-0.007 0.01,-0.0102 0.01,-0.0149 0.01,-0.0302 0.015,-0.0454 0.046,-0.14955 -0.01,0.008 0.044,-0.14069 0.093,-0.26167 0.032,-0.1325 0.5835,-0.40836 0.018,-0.009 0.03,0.0284 0.035,0.0474 0.01,0.0425 -0.084,0.26401 -0.083,0.29726 -0.1405,0.41657 -0.2901,0.83001 -0.4204,1.24999 -0.085,0.33496 0.01,0.0885 -0.6048,0.43807 -0.01,0.006 0.027,0 0.033,-0.009 0.021,-0.0296 0.031,-0.0659 0.045,-0.0997 0.042,-0.1049 0.096,-0.26925 0.1314,-0.37144 0.1445,-0.41113 0.2914,-0.8231 0.383,-1.25 0.066,-0.2749 0,-0.08 0.5714,-0.37327 0.013,-0.007 -0.023,0.02 -0.032,0.0324 -0.067,0.0965 -0.099,0.21305 -0.1652,0.31056 -0.1122,0.18686 -0.6071,1.05557 -0.8719,0.66284 0.05,-0.24717 0.1517,-0.48255 0.2038,-0.72947 0.059,-0.28692 0.1252,-0.58359 0.086,-0.87775 0.1768,-0.10219 0.3505,-0.21009 0.5305,-0.30659 0.017,-0.009 -0.029,0.0255 -0.037,0.0422 -0.02,0.038 -0.033,0.0792 -0.046,0.11978 -0.085,0.25239 -0.1371,0.51395 -0.2078,0.7702 -0.1256,0.53696 -0.2387,1.08016 -0.2656,1.63249 0,0 -0.5492,0.27526 -0.5492,0.27526 z"
         id="path2344-7"
         style="opacity:1;fill:#ffffff;fill-opacity:1;stroke:none;stroke-width:0;stroke-linecap:round;stroke-linejoin:bevel;stroke-miterlimit:4;stroke-dasharray:none;stroke-opacity:1" />
      <path
         inkscape:connector-curvature="0"
         d="m -3017.3998,-144.08685 c 0,-0.14462 0.01,-0.28869 0.021,-0.43288 0.01,-0.15458 0.036,-0.30613 0.079,-0.45411 0.036,-0.12079 0.1069,-0.22226 0.1837,-0.31982 0.069,-0.0901 0.1434,-0.17497 0.2204,-0.25778 0.074,-0.0787 0.1524,-0.1537 0.2238,-0.23514 0.09,-0.10156 0.1587,-0.21799 0.2349,-0.32917 0.1055,-0.159 0.2138,-0.31507 0.3349,-0.46264 0.059,-0.0778 0.1272,-0.14708 0.196,-0.21584 0,0 0.5621,-0.23186 0.5621,-0.23186 v 0 c -0.071,0.0665 -0.1432,0.13152 -0.2001,0.21064 -0.122,0.14405 -0.2332,0.29535 -0.332,0.45631 -0.08,0.10808 -0.1412,0.22879 -0.2279,0.33226 -0.07,0.0832 -0.1443,0.16154 -0.222,0.2376 -0.078,0.0812 -0.1546,0.16372 -0.2236,0.25275 -0.073,0.0952 -0.1555,0.18523 -0.1958,0.30124 -0.048,0.14273 -0.081,0.29126 -0.087,0.44229 -0.012,0.14095 -0.024,0.28189 -0.013,0.4234 0,0 -0.5549,0.28275 -0.5549,0.28275 z"
         id="path2348-7"
         style="opacity:1;fill:#ffffff;fill-opacity:1;stroke:none;stroke-width:0;stroke-linecap:round;stroke-linejoin:bevel;stroke-miterlimit:4;stroke-dasharray:none;stroke-opacity:1" />
      <path
         inkscape:connector-curvature="0"
         d="m -3009.7295,-156.63705 c 0.2335,-0.13374 -0.2673,0.15671 -0.4032,0.23118 -0.031,0.0169 0.06,-0.0375 0.088,-0.0592 0.1131,-0.0886 0.197,-0.19958 0.2849,-0.31172 0.1788,-0.24612 0.3528,-0.49535 0.4983,-0.76278 0.1379,-0.27488 0.1612,-0.2778 0.6163,-0.46581 0.03,-0.0122 0.03,0.0584 0.033,0.0902 0,0.0281 -0.043,0.19152 -0.046,0.20386 -0.056,0.23928 -0.1617,0.46612 -0.2033,0.70884 0.014,-0.0183 -0.012,0.0584 0.01,0.0604 0.01,0 0.01,-0.009 0.01,-0.014 0,-0.01 0.021,-0.0359 0.012,-0.0309 -0.4492,0.23098 -0.6425,0.41436 -0.4527,0.24023 0.1933,-0.2334 0.2445,-0.2613 0.6828,-0.389 0.03,-0.009 0.02,0.059 0.025,0.0897 0.01,0.0423 0.01,0.0854 0.01,0.12806 0.01,0.41873 0.01,0.83756 0.013,1.25635 0,0.0531 0,0.10622 0,0.15931 0,0.0384 0,0.0767 0,0.11509 0,0.0235 0,0.0471 0,0.0703 0,0.007 0.015,0.0149 0.01,0.0178 -0.6364,0.31875 -0.6996,0.37442 -0.5138,0.22447 0.095,-0.15892 0.1659,-0.33308 0.231,-0.50638 0.031,-0.0829 0.049,-0.16889 0.068,-0.25498 0.01,-0.0417 0.023,-0.0872 0.022,-0.13049 0.1868,-0.0842 0.372,-0.17205 0.5604,-0.25259 0.01,-0.004 -0.017,0.0138 -0.023,0.0228 -0.01,0.0147 -0.017,0.0313 -0.025,0.0473 -0.032,0.0639 -0.057,0.12925 -0.081,0.19635 -0.012,-0.0877 -0.013,0.0905 -0.01,0.0685 0,-0.012 0.013,-0.0426 0,-0.0374 -0.1719,0.0789 -0.3294,0.18654 -0.5006,0.26669 -0.024,0.0111 0.037,-0.0376 0.054,-0.0576 0.021,-0.0244 0.04,-0.0502 0.06,-0.0754 0.1126,-0.14996 0.1968,-0.31814 0.2969,-0.47637 0.8435,-0.64764 0.5978,-0.34341 0.5047,-0.12782 -0.1206,0.27906 0.054,-0.11599 -0.061,0.14249 -0.1217,0.24102 -0.1783,0.20508 -0.611,0.35939 -0.023,0.008 -0.014,-0.0465 -0.014,-0.0704 0,-0.0556 0.036,-0.15535 0.051,-0.2027 0.1074,-0.27717 0.2448,-0.54278 0.3942,-0.79957 0.1695,-0.27822 0.061,-0.18754 0.6422,-0.36013 0.023,-0.007 -0.017,0.0455 -0.028,0.0673 -0.015,0.0308 -0.033,0.0603 -0.05,0.0904 -0.059,0.10185 -0.1177,0.20397 -0.1739,0.3074 -0.028,0.0521 -0.059,0.10536 -0.077,0.16227 -0.074,-0.23572 0.01,-0.0256 -0.523,0.21912 -0.025,0.0113 0.037,-0.0398 0.054,-0.0613 0.07,-0.0898 0.1256,-0.19095 0.1834,-0.28878 0.038,-0.0692 0.082,-0.13869 0.1007,-0.21674 0,-0.004 0,-0.017 0,-0.0129 0,0.0156 -0.01,0.0542 0.01,0.0477 0.1752,-0.078 0.3363,-0.18432 0.5045,-0.27647 -0.066,0.0718 -0.1278,0.15146 -0.1666,0.24192 0,0.009 0,0.0297 -0.01,0.0277 -0.01,-0.002 0,-0.0197 0,-0.0296 0.1503,-0.17205 0,0.0111 -0.425,0.21833 -0.036,0.0174 0.063,-0.0487 0.092,-0.0755 0.1093,-0.0999 0.1997,-0.21577 0.2917,-0.33102 0.1948,-0.24812 0.2886,-0.30576 0.6876,-0.46002 0.027,-0.0104 0.028,0.0526 0.03,0.0815 0,0.0446 -0.044,0.15873 -0.056,0.18963 -0.044,0.10375 -0.099,0.20167 -0.1459,0.30397 -0.01,0.0163 -0.01,0.0379 -0.02,0.0496 -0.01,0.006 0,-0.0297 -0.01,-0.0265 -0.1757,0.0662 -0.3446,0.14905 -0.5169,0.22359 0.2575,-0.39313 0.5009,-0.79549 0.7514,-1.19317 0.044,-0.0695 0.087,-0.13917 0.1303,-0.20858 0.081,-0.12848 0.087,-0.14315 0.1652,-0.24841 0.01,-0.0113 0.014,-0.0271 0.027,-0.0329 0.6013,-0.27179 0.6181,-0.43025 0.5446,-0.14903 -0.1215,0.27117 -0.2425,0.54248 -0.3508,0.8193 -0.014,0.0384 -0.028,0.0769 -0.043,0.11512 -0.036,0.093 -0.03,0.0741 -0.062,0.15184 0,0.009 0,0.0234 -0.011,0.0279 -0.5921,0.29798 -0.608,0.45946 -0.5463,0.18666 0.139,-0.33294 0.3635,-0.61995 0.5658,-0.91567 0.1955,-0.28925 0.3765,-0.58793 0.5796,-0.87205 0.1346,-0.19706 0.6785,-0.50572 0.5699,-0.1848 -0.046,0.13471 -0.125,0.26232 -0.1924,0.3864 -0.082,0.1598 -0.1696,0.31682 -0.2565,0.47412 -0.021,0.0387 -0.043,0.0774 -0.064,0.11642 -0.01,0.0198 -0.01,0.0511 -0.031,0.0599 -0.1701,0.0726 -0.3504,0.11824 -0.5256,0.17735 0.2575,-0.43208 0.5111,-0.86582 0.7386,-1.31464 0.073,-0.15454 0.1471,-0.30957 0.2,-0.47248 0.01,-0.024 0.015,-0.0483 0.02,-0.0729 0,-0.004 -0.01,-0.0118 0,-0.0138 0.1766,-0.0809 0.3568,-0.15388 0.5351,-0.23082 -0.027,0.0232 -0.055,0.0448 -0.081,0.0696 -0.1583,0.15404 -0.2931,0.33285 -0.4289,0.50635 -0.1494,0.19097 -0.2197,0.28604 -0.3671,0.48136 -0.2327,0.31872 -0.4676,0.63797 -0.6659,0.97977 -0.061,-0.22307 0.023,0.0363 -0.5194,0.19299 -0.044,0.0126 0.056,-0.0714 0.083,-0.10771 0.1352,-0.18035 0.2624,-0.36598 0.3891,-0.55223 0.127,-0.19168 0.2519,-0.38487 0.3801,-0.57575 0.023,-0.0335 0.045,-0.0668 0.069,-0.0995 0.01,-0.0142 0.017,-0.0336 0.033,-0.0413 0.1852,-0.0905 0.3769,-0.16729 0.5654,-0.25096 -0.01,0.0324 -0.014,0.0667 -0.029,0.0971 -0.023,0.0477 -0.1599,0.23643 -0.181,0.26635 -0.1261,0.17913 -0.2525,0.35804 -0.3765,0.53865 -0.037,0.0542 -0.074,0.10854 -0.1115,0.16261 -0.03,0.0437 -0.061,0.0872 -0.091,0.1307 -0.018,0.0256 -0.036,0.0507 -0.054,0.0764 0,0.007 -0.01,0.0195 -0.014,0.0228 -0.6064,0.24486 -0.6581,0.36288 -0.4839,0.10552 0.3109,-0.46438 0.6317,-0.92142 0.9631,-1.37138 0.06,-0.081 0.1205,-0.16213 0.181,-0.24296 0.046,-0.0622 0.094,-0.12387 0.1403,-0.18603 0.03,-0.0404 0.06,-0.081 0.09,-0.1216 0.013,-0.0179 0.02,-0.0435 0.04,-0.0539 0.6035,-0.31823 0.616,-0.45369 0.5314,-0.1632 -0.2038,0.35234 -0.4254,0.69372 -0.6255,1.04827 -0.1352,0.27184 -0.1016,0.32268 -0.5985,0.35435 -0.059,0.004 0.068,-0.097 0.1042,-0.14428 0.1051,-0.13883 0.2142,-0.27461 0.3206,-0.41257 0.3191,-0.42275 0.6512,-0.83555 0.9725,-1.25669 0.2151,-0.28223 0.1169,-0.20381 0.6792,-0.3786 0.023,-0.007 -0.026,0.0389 -0.039,0.0585 -0.02,0.0298 -0.039,0.0598 -0.059,0.0897 -0.082,0.12116 -0.1571,0.24762 -0.2301,0.37467 -0.027,0.0467 -0.077,0.12206 -0.087,0.18108 -0.6734,0.30125 -0.6375,0.35778 -0.4405,0.0634 0.082,-0.12319 0.1616,-0.24805 0.2397,-0.37399 0.053,-0.0904 0.1116,-0.17933 0.1454,-0.27951 0,-0.014 0,-0.0294 0.01,-0.043 0,-0.005 0,0.0183 0,0.0161 0.1775,-0.0788 0.3509,-0.16674 0.5264,-0.25012 -0.1874,0.17946 -0.3347,0.39496 -0.4758,0.61125 -0.1602,0.24561 -0.1204,0.17332 -0.6317,0.3418 -0.023,0.008 0.017,-0.0448 0.029,-0.0655 0.041,-0.07 0.103,-0.14478 0.1514,-0.20711 0.1922,-0.21647 0.3367,-0.46721 0.4995,-0.70468 0.1628,-0.21552 0.06,-0.12081 0.6099,-0.28929 0.026,-0.008 -0.034,0.0425 -0.05,0.0646 -0.057,0.0805 -0.1109,0.16362 -0.1664,0.24542 -0.2394,0.34682 -0.4275,0.72529 -0.6291,1.09453 -0.011,0.0216 -0.025,0.042 -0.033,0.0648 0,0.004 0,0.006 0.01,0.01 -0.1816,0.0637 -0.3552,0.15829 -0.5448,0.19124 -0.038,0.007 0.034,-0.07 0.05,-0.10528 0.1834,-0.39545 -0.068,0.13859 0.1414,-0.30456 0.1404,-0.30322 0.3246,-0.58336 0.4766,-0.8803 0.045,-0.12156 -0.012,0.0106 0.021,-0.003 0.1768,-0.0752 0.3391,-0.18192 0.5157,-0.25757 0.026,-0.0113 -0.041,0.0406 -0.059,0.0621 -0.064,0.0732 -0.098,0.1217 -0.1575,0.20123 -0.079,0.10933 -0.1654,0.21268 -0.2519,0.31607 -0.017,0.0207 -0.035,0.0411 -0.052,0.0621 -0.01,0.01 -0.01,0.0253 -0.022,0.0299 -0.1753,0.0707 -0.3552,0.12931 -0.5328,0.19396 0.2123,-0.30573 0.4551,-0.58842 0.6796,-0.88504 0.037,-0.0482 0.073,-0.0963 0.11,-0.14455 0,-0.002 0.1522,-0.2155 0.167,-0.22147 0.5958,-0.24203 0.6366,-0.35462 0.4856,-0.10296 -0.1582,0.23031 -0.3405,0.44406 -0.5188,0.65923 -0.09,0.18875 -0.043,0.0992 -0.5596,0.21863 -0.034,0.008 0.034,-0.0604 0.053,-0.0897 0.1096,-0.17283 0.2252,-0.34251 0.3394,-0.51235 0.24,-0.34664 0.501,-0.68024 0.788,-0.98934 0.2122,-0.20292 0.1742,-0.17714 0.6438,-0.40477 0.04,-0.0192 0.06,0.0773 0.053,0.12075 -0.01,0.0463 -0.081,0.17578 -0.097,0.20582 -0.1433,0.26342 -0.2942,0.52292 -0.4216,0.79463 -0.044,0.20768 -0.015,0.0957 -0.5536,0.23478 -0.032,0.008 0.032,-0.059 0.048,-0.0879 0.025,-0.043 0.052,-0.0853 0.078,-0.12783 0.2428,-0.39727 -0.054,0.0902 0.198,-0.32408 0.032,-0.0576 0.065,-0.11521 0.097,-0.1728 0.1122,-0.19909 0.074,-0.13458 0.1871,-0.32225 0.05,-0.0826 0.102,-0.16367 0.1463,-0.24941 0.014,0.0187 0,0.002 0.01,0.0619 0.1635,-0.0904 0.3227,-0.18913 0.4906,-0.2712 0.021,-0.0101 -0.03,0.0342 -0.043,0.0526 -0.017,0.0237 -0.068,0.10603 -0.084,0.13189 -0.1405,0.22967 -0.01,0.0762 -0.5966,0.29797 -0.018,0.007 0.03,-0.0246 0.043,-0.0387 0.045,-0.0497 0.086,-0.10377 0.1298,-0.15496 0.1687,-0.17222 0.3034,-0.3725 0.4596,-0.55523 0.1822,-0.18966 0.1803,-0.19701 0.6068,-0.37978 0.068,-0.0291 0.035,0.10445 0.014,0.15719 -0.032,0.0793 -0.09,0.16825 -0.1326,0.23898 -0.088,0.14755 -0.1738,0.29588 -0.2543,0.44745 -0.018,0.0332 -0.035,0.0663 -0.052,0.10015 -0.023,0.0485 -0.03,0.0353 -0.017,0.0546 -0.6698,0.29264 -0.6285,0.34675 -0.4353,0.0469 0.081,-0.12574 0.1571,-0.25342 0.2319,-0.38298 0.024,-0.0417 0.047,-0.0836 0.072,-0.12496 0.057,-0.0972 0.1187,-0.19126 0.1804,-0.28561 0.026,-0.04 0.017,-0.0516 0.028,-0.0314 0.8428,-0.36643 0.6482,-0.37072 0.5011,-0.18815 -0.063,0.078 -0.1148,0.1648 -0.1687,0.24899 -0.1815,0.10671 -0.35,0.23957 -0.5445,0.32013 -0.027,0.0111 -0.027,-0.0532 -0.03,-0.0822 -0.01,-0.048 0.086,-0.24879 0.1072,-0.30141 0.043,-0.13217 0.099,-0.25892 0.1598,-0.38381 0.052,-0.10566 0.1169,-0.20399 0.187,-0.2982 0.066,-0.0865 0.142,-0.16512 0.2181,-0.24307 0.082,-0.0777 0.1689,-0.14887 0.2527,-0.22422 0.082,-0.0803 0.1676,-0.15633 0.2573,-0.22825 0.097,-0.0793 0.1998,-0.15036 0.3018,-0.2226 0.1064,-0.0742 0.2065,-0.15661 0.3057,-0.24006 0.097,-0.0774 0.1927,-0.15709 0.288,-0.23691 0.2003,-0.15661 0.3887,-0.26924 0.6416,-0.38753 0.017,-0.008 0.028,0.0281 0.033,0.0463 0.015,0.0504 -0.013,0.0677 -0.041,0.1031 -0.1118,0.11393 -0.2289,0.22098 -0.3197,0.35317 -0.054,0.0843 -0.1027,0.17138 -0.1495,0.25969 -0.038,0.063 -0.09,0.12216 -0.154,0.15932 -0.575,0.332 -0.3593,0.30205 -0.6262,0.33118 -0.1415,0 -0.091,-0.15107 -0.062,-0.23326 0.061,-0.15553 0.1582,-0.29327 0.2508,-0.43122 0.073,-0.11162 0.1618,-0.21164 0.246,-0.31488 0.069,-0.0876 0.134,-0.17796 0.2052,-0.26372 0.061,-0.0673 0.1148,-0.14117 0.1751,-0.20935 0.071,-0.0658 0.1428,-0.12867 0.2025,-0.2053 0.055,-0.0713 0.107,-0.14525 0.1422,-0.2284 0.024,-0.0734 0.042,-0.14871 0.065,-0.22251 0.019,-0.0803 0.055,-0.15388 0.092,-0.22687 0.048,-0.0912 0.1032,-0.17833 0.1615,-0.26299 0.063,-0.0874 0.1251,-0.17607 0.1876,-0.2642 0.069,-0.0884 0.1249,-0.18521 0.1889,-0.27682 0.061,-0.0854 0.1343,-0.15985 0.2006,-0.24054 0.067,-0.0861 0.1284,-0.17662 0.1983,-0.26064 0.071,-0.0802 0.1452,-0.15763 0.228,-0.22567 0.092,-0.0702 0.1901,-0.13062 0.2862,-0.19428 0.087,-0.0682 0.168,-0.14232 0.2574,-0.20753 0.073,-0.0551 0.1473,-0.10907 0.2235,-0.15985 0.043,-0.0272 0.079,-0.0636 0.115,-0.0997 0,0 0.5688,-0.23914 0.5688,-0.23914 v 0 c -0.033,0.0404 -0.067,0.0789 -0.1068,0.11297 -0.076,0.0512 -0.1531,0.1012 -0.2254,0.15764 -0.09,0.0667 -0.1821,0.12876 -0.2594,0.21077 -0.094,0.0656 -0.1932,0.12318 -0.2856,0.19113 -0.088,0.0595 -0.1601,0.1365 -0.2329,0.21348 -0.073,0.0804 -0.1365,0.16847 -0.1981,0.25811 -0.065,0.0818 -0.1371,0.15716 -0.2032,0.23815 -0.068,0.0897 -0.1213,0.18783 -0.1897,0.27668 -0.063,0.0877 -0.1241,0.17701 -0.1866,0.26521 -0.063,0.0776 -0.1103,0.1664 -0.1631,0.25116 -0.034,0.0715 -0.079,0.13935 -0.095,0.21773 -0.023,0.0748 -0.045,0.14961 -0.064,0.22568 -0.029,0.0907 -0.079,0.1709 -0.137,0.24585 -0.058,0.0796 -0.1179,0.15381 -0.1979,0.21253 -0.068,0.061 -0.1157,0.13874 -0.1774,0.20551 -0.074,0.0839 -0.1436,0.17222 -0.2088,0.26358 -0.085,0.10386 -0.1745,0.20349 -0.253,0.31231 -0.093,0.13256 -0.188,0.26617 -0.2519,0.41539 -0.025,0.0645 -0.016,0.0381 -0.036,0.0963 -0.015,0.0434 -0.017,0.028 0.033,0.0217 0.2134,-0.0761 0.052,-0.0214 -0.441,0.2683 -0.017,0.01 0.034,-0.019 0.05,-0.0297 0.026,-0.0169 0.061,-0.0444 0.084,-0.0666 0.01,-0.0106 0.019,-0.0227 0.029,-0.034 0.05,-0.0892 0.096,-0.18065 0.1524,-0.26632 0.085,-0.13665 0.1966,-0.25037 0.3146,-0.35888 0.018,-0.0202 0.031,-0.0555 0.063,-0.0326 0.011,0.008 0.013,0.0383 0.026,0.0322 0.871,-0.43308 0.6073,-0.3822 0.417,-0.23241 -0.098,0.0771 -0.1888,0.16274 -0.2897,0.2362 -0.099,0.0845 -0.1975,0.16871 -0.303,0.24455 -0.1014,0.0729 -0.2045,0.1433 -0.3042,0.21846 -0.086,0.0746 -0.1788,0.14045 -0.2561,0.22494 -0.082,0.076 -0.1672,0.14937 -0.2535,0.22093 -0.076,0.0768 -0.1526,0.15356 -0.2219,0.2367 -0.072,0.09 -0.1375,0.18541 -0.1926,0.28696 -0.061,0.12505 -0.1266,0.24825 -0.1677,0.38209 -0.03,0.0766 -0.06,0.153 -0.088,0.23037 -0.01,0.0149 0,0.0374 -0.017,0.0446 -0.011,0.006 -0.02,-0.0136 -0.03,-0.0204 -0.1726,0.10364 -0.3453,0.20728 -0.5179,0.31093 0.046,-0.0576 0.086,-0.11819 0.1261,-0.18053 0,-0.005 0.074,-0.12081 0.08,-0.1242 0.1924,-0.10309 0.3935,-0.1889 0.5902,-0.28337 0,0.01 0.01,0.0196 0,0.0283 -0.01,0.0163 -0.022,0.0279 -0.033,0.0419 -0.018,0.0239 -0.037,0.0475 -0.055,0.0721 -0.078,0.10895 -0.1473,0.22359 -0.2142,0.33947 -0.073,0.12798 -0.1461,0.25483 -0.2222,0.3808 -0.019,0.0319 -0.038,0.0643 -0.057,0.0964 -0.013,0.0228 -0.018,0.0551 -0.041,0.0682 -0.1911,0.10863 -0.3944,0.19418 -0.5916,0.29128 0.021,-0.0192 0.097,-0.16567 0.1008,-0.17176 0.085,-0.14891 0.1693,-0.29842 0.2523,-0.44853 0.098,-0.16701 0.048,-0.0746 0.1202,-0.22083 0.01,-0.0174 0.01,-0.0439 0.026,-0.0521 0.012,-0.006 0.021,0.017 0.031,0.0256 0.1646,-0.098 0.3293,-0.19602 0.494,-0.29405 0.022,-0.0126 -0.039,0.0325 -0.059,0.0488 -0.049,0.0544 -0.099,0.10716 -0.1441,0.16505 -0.1033,0.13168 -0.1972,0.27141 -0.3167,0.38986 -0.044,0.0508 -0.083,0.0925 -0.1196,0.14789 -0.011,0.0161 -0.011,0.0421 -0.028,0.0507 -0.5228,0.26018 -0.7124,0.4314 -0.5454,0.17904 0.015,-0.0223 0.1097,-0.18731 0.1182,-0.1931 0.1934,-0.13139 0.4723,-0.49184 0.6261,-0.31583 0.01,0.009 0,0.0241 0.01,0.0361 -0.1537,0.25268 -0.3322,0.49069 -0.4597,0.7592 -0.1154,0.19312 -0.079,0.13064 -0.1873,0.31877 -0.023,0.0399 -0.047,0.0792 -0.068,0.11986 -0.014,0.0262 -0.013,0.0653 -0.038,0.0805 -0.1872,0.11234 -0.3887,0.19897 -0.5854,0.29364 -0.01,0.004 0.012,-0.0138 0.018,-0.0208 0.1509,-0.26193 0.29,-0.53084 0.4308,-0.79824 0.018,-0.0363 0.037,-0.0724 0.054,-0.1088 0.012,-0.0237 0.02,-0.0492 0.035,-0.0712 0.01,-0.008 0.015,-0.0111 0.023,-0.0167 0,0.003 0,0.012 0,0.0102 0.1577,-0.0907 0.3093,-0.19206 0.469,-0.27935 0.032,-0.0174 -0.056,0.046 -0.084,0.0689 -0.3031,0.29968 -0.5666,0.63852 -0.8106,0.98735 -0.1924,0.29249 -0.062,0.0891 -0.2311,0.36498 -0.027,0.0435 -0.055,0.0857 -0.081,0.12979 -0.015,0.0266 -0.015,0.0668 -0.042,0.0821 -0.1896,0.10918 -0.395,0.18844 -0.5923,0.28304 -0.01,0.004 0.015,-0.007 0.023,-0.01 0.09,-0.0878 0.1683,-0.18545 0.2482,-0.28226 0.07,-0.0847 0.1423,-0.16742 0.2077,-0.25562 0.027,-0.0359 0.049,-0.0744 0.074,-0.11162 0.1544,-0.27281 0.033,-0.0944 0.6387,-0.38222 0.016,-0.008 -0.027,0.0226 -0.039,0.0353 -0.1,0.10659 -0.1821,0.22808 -0.2753,0.33995 -0.2183,0.28775 -0.4563,0.56175 -0.6504,0.867 -0.1999,0.0998 -0.3966,0.20637 -0.5998,0.29932 -0.015,0.007 0.019,-0.0262 0.029,-0.0383 0.1075,-0.12447 0.2257,-0.24036 0.3177,-0.37767 0.1081,-0.15528 0.042,-0.0629 0.1441,-0.20044 0.016,-0.0218 0.025,-0.0514 0.048,-0.0656 0.1891,-0.1155 0.3802,-0.22989 0.5827,-0.31985 0.017,-0.008 0.028,0.0291 0.03,0.0478 0,0.018 -0.014,0.0332 -0.022,0.0498 -0.1712,0.29167 -0.3547,0.57665 -0.4965,0.88462 -0.055,0.1229 -0.081,0.17447 -0.1282,0.29617 -0.013,0.0341 -0.01,0.0837 -0.037,0.1033 -0.1883,0.11973 -0.4001,0.19793 -0.5981,0.30069 0,0.003 0.011,0 0.017,0.002 0.016,-0.0238 0.032,-0.0476 0.047,-0.0714 0.2249,-0.35841 0.4034,-0.74309 0.632,-1.09916 0.1251,-0.19593 0.047,-0.0693 0.1467,-0.23806 0.012,-0.0208 0.016,-0.0511 0.037,-0.0622 0.1916,-0.099 0.3936,-0.17647 0.5912,-0.26276 0.029,-0.0129 -0.1977,0.10835 -0.071,0.0645 -0.1784,0.22958 -0.3164,0.48961 -0.5079,0.71017 -0.028,0.036 -0.057,0.071 -0.084,0.10797 -0.019,0.0268 -0.035,0.0559 -0.054,0.0832 -0.01,0.0138 -0.015,0.0323 -0.03,0.04 -0.1867,0.0975 -0.3799,0.182 -0.5699,0.273 0.011,-0.009 0.024,-0.0153 0.034,-0.0256 0.021,-0.0224 0.037,-0.048 0.056,-0.0721 0.1434,-0.21062 0.2844,-0.42324 0.4509,-0.61695 0.1956,-0.10174 0.3853,-0.21577 0.5868,-0.30524 0.03,-0.0131 0.019,0.0469 0,0.0912 -0.036,0.10599 -0.096,0.20113 -0.1545,0.2955 -0.078,0.12366 -0.1555,0.24746 -0.2327,0.37152 -0.019,0.0314 -0.038,0.0633 -0.057,0.095 -0.012,0.0204 -0.016,0.0499 -0.037,0.0614 -0.1902,0.10461 -0.3913,0.18778 -0.5869,0.28166 0.036,-0.0495 -0.01,0.0136 0.05,-0.0915 0.089,-0.16208 0.189,-0.31901 0.2825,-0.47859 0.017,-0.0288 0.034,-0.0575 0.051,-0.0863 0.011,-0.018 0.013,-0.0445 0.031,-0.054 0.8764,-0.45436 0.6486,-0.36384 0.4309,-0.10465 -0.3387,0.4159 -0.6764,0.83291 -0.9946,1.26478 -0.099,0.13384 -0.2006,0.26505 -0.2974,0.40012 -0.031,0.0434 -0.044,0.10355 -0.089,0.13307 -0.1909,0.12687 -0.3965,0.23159 -0.6046,0.32776 -0.069,0.0319 0.2852,-0.30975 0.1134,-0.19818 0.2051,-0.34169 0.4174,-0.67995 0.602,-1.03323 0.1792,-0.18402 0.081,-0.0916 0.5898,-0.32711 0.025,-0.0117 -0.041,0.038 -0.059,0.0589 -0.1598,0.17924 -0.3029,0.37341 -0.448,0.56425 -0.3243,0.43705 -0.6389,0.88086 -0.9184,1.34836 -0.1716,0.27207 -0.025,0.0739 -0.6464,0.3697 -0.012,0.005 0.025,-0.008 0.034,-0.017 0.1146,-0.10787 0.1858,-0.25668 0.2841,-0.37725 0.083,-0.12075 0.1684,-0.24012 0.2514,-0.36104 0.095,-0.13896 0.1834,-0.2838 0.2802,-0.42173 0.012,-0.0163 0.026,-0.0307 0.039,-0.0461 0.1838,-0.0958 0.366,-0.19477 0.5514,-0.28742 0.019,-0.01 -0.037,0.0224 -0.052,0.0378 -0.031,0.0319 -0.057,0.0679 -0.083,0.10327 -0.1408,0.18699 -0.2673,0.38453 -0.3941,0.58097 -0.1909,0.29095 -0.079,0.12187 -0.2605,0.39228 -0.034,0.0501 -0.067,0.1004 -0.1009,0.15046 -0.023,0.0342 -0.035,0.0792 -0.07,0.10221 -0.1887,0.12683 -0.386,0.242 -0.5905,0.34147 -0.015,0.007 -0.012,-0.0303 -0.018,-0.0454 0.081,-0.10124 0.1545,-0.21039 0.2286,-0.31704 0.2328,-0.33511 0.051,-0.0829 0.3099,-0.43978 0.06,-0.0828 0.1205,-0.16541 0.1807,-0.24812 0.2633,-0.35471 0.5208,-0.71546 0.8107,-1.04908 0.2,-0.0927 0.3961,-0.19441 0.6,-0.27813 0.01,-0.004 0,0.0227 0,0.0335 -0.01,0.0276 -0.018,0.0545 -0.029,0.0813 -0.065,0.16799 -0.1444,0.33016 -0.2252,0.49107 -0.2286,0.43408 -0.4704,0.86094 -0.7018,1.29344 -0.1967,0.10859 -0.3873,0.22886 -0.5899,0.32574 -0.024,0.0113 0.031,-0.0429 0.045,-0.0652 0.025,-0.0394 0.05,-0.0792 0.073,-0.11962 0.09,-0.15418 0.1732,-0.31267 0.2541,-0.47189 0.048,-0.0913 0.094,-0.17447 0.1365,-0.26832 0.014,-0.032 0.026,-0.0652 0.039,-0.0975 0.01,-0.0163 0.01,-0.0393 0.022,-0.0482 0.1811,-0.10535 0.3719,-0.19337 0.5581,-0.28929 0.012,-0.006 -0.023,0.0133 -0.035,0.0199 -0.2331,0.27268 -0.4096,0.58641 -0.6117,0.88142 -0.1922,0.28533 -0.4078,0.56129 -0.5372,0.88295 -0.1019,0.23421 -0.016,0.0616 -0.5781,0.3315 -0.01,0.005 0.014,-0.0187 0.02,-0.0286 0.05,-0.0856 0.088,-0.17766 0.1218,-0.27058 0.1121,-0.27052 0.2304,-0.53847 0.338,-0.81084 0.1239,-0.23729 0.012,-0.0482 0.5846,-0.34111 0.016,-0.008 -0.034,0.0154 -0.047,0.0278 -0.1411,0.13015 -0.2211,0.31349 -0.3329,0.46565 -0.2438,0.38608 -0.4839,0.77402 -0.7058,1.17324 -0.1966,0.11297 -0.388,0.23568 -0.5899,0.33888 -0.01,0.005 -0.012,-0.0214 -0.01,-0.0325 0,-0.0202 0.018,-0.0371 0.028,-0.0554 0.037,-0.0721 0.062,-0.11758 0.1,-0.19177 0.018,-0.0355 0.035,-0.0714 0.052,-0.10707 0.012,-0.0325 0.024,-0.0646 0.035,-0.0974 0.01,-0.0202 0,-0.0447 0.017,-0.0615 0.01,-0.007 0.017,0.0118 0.025,0.008 0.1697,-0.0942 0.3301,-0.20431 0.4996,-0.29873 0.06,-0.0336 -0.2788,0.21286 -0.1436,0.1495 -0.2443,0.31129 -0.6027,0.76611 -1.0268,0.76724 -0.013,-0.0158 -0.033,-0.028 -0.039,-0.0475 0,-0.0133 0.01,-0.0277 0.01,-0.0409 0.035,-0.0951 0.099,-0.17565 0.1536,-0.25917 0.1889,-0.11312 0.369,-0.24255 0.5667,-0.33934 0.038,-0.0185 0.052,0.0665 0.05,0.0802 -0.01,0.0854 -0.074,0.16099 -0.1088,0.23586 -0.04,0.0686 -0.079,0.13808 -0.1192,0.20659 0,0.006 -0.088,0.14554 -0.096,0.15096 -0.1857,0.12057 -0.3727,0.24181 -0.5734,0.33525 -0.019,0.009 -0.025,-0.0338 -0.038,-0.0507 0.018,-0.0667 0.056,-0.12362 0.09,-0.18352 0.057,-0.10137 0.1129,-0.2037 0.1703,-0.30502 0.015,-0.0276 0.03,-0.055 0.045,-0.0828 0.01,-0.017 0.01,-0.0427 0.026,-0.0521 0.1873,-0.10338 0.3853,-0.18609 0.5772,-0.28063 0.01,-0.003 -0.013,0 -0.018,0.005 -0.025,0.0225 -0.078,0.10441 -0.091,0.12215 -0.1592,0.2464 -0.2922,0.5109 -0.3986,0.78419 -0.01,0.0351 -0.021,0.0699 -0.03,0.1052 -0.01,0.0232 -0.01,0.047 -0.016,0.0703 0,0.007 0,0.0169 -0.01,0.0206 -0.1764,0.10354 -0.3576,0.1989 -0.5365,0.29833 0.01,-0.007 0.021,-0.0122 0.029,-0.0212 0.013,-0.0144 0.021,-0.0319 0.032,-0.0478 0.043,-0.0837 0.027,-0.0464 0.062,-0.13894 0,-0.0127 0.04,-0.1134 0.044,-0.11528 0.6022,-0.32842 0.6428,-0.48427 0.5762,-0.25901 -0.1242,0.14616 -0.1964,0.32558 -0.3063,0.48168 -0.019,0.0251 -0.038,0.0499 -0.056,0.0752 -0.015,0.021 -0.023,0.0496 -0.044,0.0636 -0.1869,0.1202 -0.3758,0.23916 -0.576,0.33557 -0.045,0.0218 -0.079,-0.1283 -0.046,-0.13937 0.028,-0.0842 0.066,-0.16498 0.095,-0.24862 0,-0.0127 0,-0.0329 0.01,-0.0391 0.188,-0.0986 0.3849,-0.17917 0.5773,-0.26875 0,0.051 -0.018,0.0975 -0.029,0.14711 -0.021,0.089 -0.039,0.17885 -0.07,0.26529 -0.063,0.17513 -0.1378,0.34524 -0.2113,0.51612 -0.1014,0.24024 -0.026,0.0919 -0.6012,0.32055 -0.012,0.005 -0.01,-0.0256 -0.01,-0.0389 0,-0.065 0.01,-0.12981 0.01,-0.19479 0,-0.0542 0,-0.10838 0,-0.16256 0.01,-0.41443 0.01,-0.82992 -0.025,-1.24327 -0.01,-0.038 -0.01,-0.0761 -0.016,-0.11396 0,-0.0154 -0.024,-0.0372 -0.011,-0.0458 0.1681,-0.11155 0.3528,-0.19595 0.5273,-0.29703 0.011,-0.007 -0.026,0.005 -0.037,0.0131 -0.026,0.0191 -0.063,0.0746 -0.08,0.0987 -0.1712,0.21292 -0.065,0.0914 -0.6046,0.38427 -0.042,0.0226 -0.085,-0.0477 -0.09,-0.0769 0,-0.019 0,-0.0385 0,-0.0578 0.047,-0.24463 0.1593,-0.47173 0.2094,-0.71595 0.01,-0.036 0.018,-0.0717 0.025,-0.10793 0,-0.0245 0,-0.0543 0.011,-0.0741 0.01,-0.01 0.022,0.0237 0.033,0.0178 0.6368,-0.34506 0.5814,-0.46368 0.42,-0.16995 -0.1495,0.26913 -0.3236,0.52172 -0.5003,0.77356 -0.033,0.0441 -0.1407,0.18915 -0.1787,0.23264 -0.215,0.24643 -0.5465,0.37658 -0.8246,0.52748 0,0 0.4881,-0.38579 0.4881,-0.38579 z"
         id="path2350-6"
         style="opacity:1;fill:#ffffff;fill-opacity:1;stroke:none;stroke-width:0;stroke-linecap:round;stroke-linejoin:bevel;stroke-miterlimit:4;stroke-dasharray:none;stroke-opacity:1" />
      <path
         inkscape:connector-curvature="0"
         d="m -3014.2942,-148.79838 c 0,0 -0.01,0.002 0,0 0.013,-0.024 0.032,-0.0442 0.046,-0.0671 0.03,-0.0469 0.056,-0.0943 0.08,-0.14474 0.035,-0.0834 0.082,-0.16259 0.1008,-0.25169 0.021,-0.0708 0.035,-0.14306 0.041,-0.21654 0.012,-0.1518 0.091,-0.27142 0.1854,-0.38455 0.061,-0.0824 0.129,-0.15864 0.2019,-0.23032 0.1719,-0.1592 0.059,-0.0677 0.5024,0.37853 0,0.003 -0.1124,0.15793 -0.1258,0.17588 -0.041,0.0656 -0.1043,0.11557 -0.1455,0.18073 0,0.002 0,0 0.01,-0.002 0.011,-0.0205 0.019,-0.0421 0.028,-0.0632 -0.045,-0.26618 0.018,-0.22766 -0.2662,-0.35539 -0.045,-0.0203 -0.1175,0.0349 -0.044,-0.0245 0.016,-0.0129 0.031,-0.0262 0.047,-0.0393 0.1058,-0.10384 0.2103,-0.21187 0.29,-0.33752 0.069,-0.10906 0.1329,-0.22046 0.2016,-0.32937 0.04,-0.0659 0.056,-0.14143 0.084,-0.21263 0.042,-0.11669 0.1064,-0.22157 0.1796,-0.32092 0.069,-0.0991 0.1627,-0.17422 0.2473,-0.25815 0.072,-0.0676 0.1302,-0.14687 0.1887,-0.22575 0.068,-0.0985 0.153,-0.1832 0.2278,-0.27597 0.067,-0.0837 0.1338,-0.16757 0.2066,-0.24639 0.081,-0.0991 0.1946,-0.15657 0.3015,-0.22226 0.081,-0.0619 0.1771,-0.0994 0.2645,-0.15117 0.1,-0.0546 0.2015,-0.10594 0.2991,-0.16464 0.039,-0.0332 0.1565,-0.0856 0.1735,-0.13646 0.018,-0.0486 0.047,-0.1188 0.068,-0.17381 0.024,-0.052 0.032,-0.10719 0.044,-0.16252 0.036,-0.11638 0.089,-0.22668 0.1443,-0.33475 0.075,-0.13641 0.1576,-0.26703 0.2574,-0.38669 0.1016,-0.11209 0.2222,-0.20339 0.3407,-0.29636 0.087,-0.0729 0.1743,-0.14551 0.2619,-0.21784 0.084,-0.0753 0.1617,-0.15549 0.2375,-0.23858 0.07,-0.0712 0.1344,-0.14545 0.1915,-0.22716 0.063,-0.0881 0.115,-0.18266 0.1772,-0.27137 0.023,-0.0334 0.034,-0.0465 0.053,-0.0798 0,-0.006 0.013,-0.0256 0.01,-0.0193 -0.026,0.0456 -0.056,0.11202 -0.027,0.16249 0.055,0.0974 0.1516,0.16514 0.2274,0.24773 0.072,-0.009 0.1441,-0.016 0.2158,-0.0269 0.01,-0.002 0.011,-0.008 0.017,-0.009 0,0 0,0.005 0,0.007 -0.01,0.0113 -0.018,0.0213 -0.027,0.0326 -0.014,0.0198 -0.03,0.051 -0.041,0.0714 -0.1255,0.18498 -0.1947,0.3972 -0.2756,0.60335 -0.097,0.23606 -0.1794,0.47735 -0.2831,0.71053 -0.067,0.15118 -0.1453,0.29655 -0.2285,0.43913 -0.053,0.0695 -0.089,0.14377 -0.1152,0.22557 -0.053,0.15925 -0.1715,0.27195 -0.3052,0.36564 -0.068,0.0399 -0.1383,0.0768 -0.2086,0.11301 -0.029,0.0308 -0.1602,0.0601 -0.1769,0.0813 -0.036,0.0124 -0.071,0.0305 -0.1088,0.0373 -0.1536,0.0277 -0.3111,-0.0275 -0.4107,-0.1483 -0.019,-0.0235 -0.035,-0.0502 -0.052,-0.0753 -0.085,-0.16518 -0.059,-0.32115 -0.021,-0.49368 0.019,-0.13758 0.076,-0.26282 0.1393,-0.38475 0.063,-0.1072 0.136,-0.20767 0.1966,-0.3161 0.054,-0.12364 0.1178,-0.24133 0.1937,-0.35279 0.075,-0.11887 0.1527,-0.23595 0.2342,-0.35086 0.063,-0.099 0.1112,-0.20553 0.1756,-0.30379 0.014,-0.0174 0.023,-0.0633 0.042,-0.052 0.1812,0.10583 0.3507,0.23311 0.5071,0.37297 0.015,0.0138 -0.017,0.0379 -0.027,0.0565 -0.056,0.10958 -0.1184,0.21426 -0.1833,0.31885 -0.1983,0.25037 -0.353,0.5299 -0.5189,0.80164 -0.1,0.17208 -0.2053,0.34236 -0.2882,0.52358 -0.037,0.11839 -0.068,0.23769 -0.1134,0.35346 -0.066,0.15363 -0.1665,0.28611 -0.2766,0.41014 -0.097,0.11175 -0.2071,0.21116 -0.3146,0.31258 -0.076,0.0709 -0.2183,0.20189 -0.3231,0.21325 -0.068,0.007 -0.1371,-0.003 -0.2057,-0.004 -0.074,-0.0942 -0.1757,-0.17226 -0.2232,-0.28245 -0.024,-0.0549 0.011,-0.1195 0.025,-0.17753 0.039,-0.15941 0.2136,-0.35875 0.3176,-0.4788 0.1447,-0.16012 0.2989,-0.31127 0.453,-0.46216 0.062,-0.061 0.082,-0.07 0.05,-0.0538 0.2347,0.83605 -0.063,0.3471 0.3193,0.49033 0.02,0.008 -0.038,0.0216 -0.057,0.0329 -0.03,0.0182 -0.06,0.0364 -0.089,0.0557 -0.073,0.0483 -0.1478,0.10324 -0.2189,0.15454 -0.264,0.17464 -0.5016,0.38426 -0.7531,0.57555 -0.09,0.0702 -0.1798,0.14131 -0.2723,0.20846 -0.015,0.0113 -0.083,0.0599 -0.1054,0.0696 -0.035,0.0154 -0.072,0.0263 -0.1076,0.0394 -0.2977,-0.55586 -0.4031,-0.42054 -0.1929,-0.61298 0.029,-0.0265 0.056,-0.0507 0.078,-0.0826 0.092,-0.1281 0.2878,-0.29278 0.4663,-0.17516 0.2445,0.16116 0.2036,0.25702 0.1736,0.43335 -0.1016,0.32596 -0.2441,0.63818 -0.3904,0.94616 -0.1916,0.39447 -0.4116,0.77445 -0.6294,1.15489 -0.1743,0.27931 -0.2125,0.235 -0.6463,-0.0961 -0.024,-0.0185 0.063,-0.26366 0.073,-0.29594 0.077,-0.24152 0.1821,-0.47281 0.2882,-0.70251 0.1874,-0.36252 0.1538,-0.43589 0.652,0.12407 0.027,0.03 -0.043,0.0679 -0.064,0.10204 -0.025,0.0405 -0.05,0.0811 -0.075,0.12167 -0.2063,0.3253 -0.4002,0.65825 -0.5811,0.99835 0.046,-0.22175 -0.068,0.17055 -0.056,0.12599 0.059,-0.23218 0.1399,-0.0511 -0.4622,-0.3536 -0.016,-0.008 -0.081,0.0798 -0.028,0.0118 0.1592,-0.23848 0.2267,0.1247 0.5006,0.38189 0,0.002 0.01,-0.008 0.01,-0.005 -0.029,0.0563 -0.065,0.10184 -0.1017,0.15361 -0.1726,0.25136 -0.3697,0.4833 -0.581,0.70255 -0.2606,0.26617 -0.525,0.52852 -0.8019,0.77779 -0.1281,0.12133 -0.2636,0.24005 -0.3666,0.38448 -0.06,0.0716 -0.099,0.15357 -0.1404,0.23607 -0.05,0.11032 -0.1243,0.20576 -0.1871,0.30828 -0.066,0.0987 -0.124,0.20244 -0.1934,0.29907 -0.07,0.0796 -0.1158,0.17451 -0.1648,0.26752 -0.054,0.0987 -0.1121,0.1945 -0.1718,0.28964 -0.051,0.10693 -0.1287,0.19204 -0.2147,0.27189 -0.069,0.0704 -0.1388,0.14034 -0.2099,0.2089 -0.1167,0.0981 -0.2591,0.15411 -0.3943,0.22081 -0.075,0.0427 -0.1536,0.0791 -0.2207,0.13393 0,-3e-5 0.01,-0.002 0.01,0 -0.016,0.024 -0.038,0.0428 -0.056,0.0651 -0.028,0.0344 -0.054,0.0686 -0.084,0.10164 -0.01,0.0102 -0.02,0.0206 -0.029,0.0309 0,0.002 0,0.006 0,0.005 0,-0.003 0.014,-0.016 0.011,-0.0111 -0.023,0.0482 -0.011,0.0172 -0.02,0.0403 -0.01,0.017 0,0.0133 0,0.0279 0,0.0286 0,0.0572 0,0.0858 0,0.0336 0,0.0672 0,0.10085 0,-0.0184 0,0.0375 0,0.0284 -0.015,-0.052 0,-0.11835 -0.042,-0.15694 -0.1356,-0.13785 -0.2447,-0.19006 -0.4001,-0.11726 0,0.002 -0.01,0.01 -0.013,0.007 0,0 0.016,-0.0257 0.025,-0.0399 0.035,-0.0517 0.068,-0.10381 0.1024,-0.15583 0.073,-0.10949 0.1473,-0.21723 0.2213,-0.32577 0.059,-0.0929 0.098,-0.19832 0.1445,-0.29857 0.064,-0.12544 0.1105,-0.25908 0.1601,-0.39072 0.066,-0.14031 0.14,-0.27578 0.2023,-0.41795 0.068,-0.16927 0.1462,-0.3341 0.2141,-0.50342 0.054,-0.14432 0.1056,-0.29035 0.1777,-0.42724 0.054,-0.1018 0.1061,-0.18141 0.1672,-0.27885 0.1456,-0.22316 0.3043,-0.4383 0.441,-0.66729 0.076,-0.12731 0.1447,-0.25885 0.2173,-0.38812 0.2509,-0.46673 0.5211,-0.92253 0.7782,-1.38582 0.2559,-0.48495 0.516,-0.96766 0.7772,-1.44983 0.2122,-0.39185 0.7664,-0.0917 0.5542,0.30015 v 0 c -0.2622,0.48406 -0.5233,0.96872 -0.7803,1.4555 -0.2577,0.4642 -0.5283,0.92101 -0.7798,1.38866 -0.01,0.0178 -0.2271,0.40449 -0.2351,0.41782 -0.1363,0.22782 -0.2933,0.44264 -0.4391,0.66429 -0.029,0.0459 -0.1033,0.16145 -0.1321,0.21509 -0.067,0.12474 -0.1107,0.2593 -0.1617,0.39083 -0.071,0.17529 -0.1507,0.34632 -0.2217,0.52147 -0.058,0.13178 -0.1217,0.26001 -0.1896,0.38679 -0.055,0.14563 -0.1073,0.29303 -0.1775,0.43215 -0.061,0.1322 -0.1141,0.26984 -0.1965,0.39047 -0.072,0.1051 -0.1444,0.20941 -0.2145,0.31574 -0.083,0.12699 -0.1594,0.26299 -0.2797,0.3593 -0.059,0.037 -0.1444,0.0997 -0.2178,0.0811 -0.2191,-0.0558 -0.3341,-0.13534 -0.3326,-0.34969 0,-0.0333 0,-0.0666 0,-0.0999 0,-0.0466 0,-0.0932 0,-0.13977 0.01,-0.0802 0.023,-0.15949 0.057,-0.23315 0.038,-0.0833 0.08,-0.16643 0.1477,-0.23058 0.073,-0.0789 0.1302,-0.17117 0.213,-0.24108 0.1033,-0.0793 0.2156,-0.14354 0.3313,-0.20328 0.051,-0.025 0.1037,-0.0475 0.1545,-0.0731 0.026,-0.0133 0.05,-0.0321 0.079,-0.0404 0,0 0,0.003 0,0.005 0.074,-0.0713 0.1462,-0.14404 0.2184,-0.21694 0.011,-0.0106 0.022,-0.0221 0.034,-0.0319 0,-0.002 0.01,0.0151 0.01,-0.003 0.026,-0.0342 0.043,-0.0747 0.066,-0.11057 0.051,-0.0815 0.1016,-0.16347 0.1478,-0.24796 0.064,-0.12169 0.1272,-0.2445 0.2168,-0.35014 0.064,-0.0767 0.1012,-0.17497 0.1629,-0.25415 0.054,-0.0863 0.1163,-0.16709 0.1598,-0.25935 0.057,-0.11401 0.116,-0.22646 0.196,-0.32689 0.132,-0.17666 0.2896,-0.33201 0.4529,-0.47973 0.2664,-0.23929 0.5199,-0.49213 0.7706,-0.74762 0.1921,-0.19728 0.3684,-0.40855 0.5246,-0.63562 0.045,-0.059 0.02,-0.0224 0.06,-0.0876 0.017,-0.0274 0.023,-0.099 0.05,-0.0821 0.941,0.58664 0.3,0.55479 0.5115,0.36769 0.01,-0.008 -0.014,0.0193 -0.021,0.0289 -0.026,0.0341 -0.099,0.12954 -0.1162,0.12396 -0.5969,-0.18941 -0.5667,-0.23396 -0.3915,-0.59017 0.1873,-0.35163 0.3874,-0.69631 0.6009,-1.03275 0.026,-0.0425 0.052,-0.0851 0.079,-0.12742 0.016,-0.0256 0.02,-0.0862 0.048,-0.0762 0.6962,0.24472 0.6247,0.1378 0.4685,0.45097 -0.095,0.20553 -0.1903,0.4124 -0.2595,0.62841 -0.01,0.0256 -0.017,0.0511 -0.024,0.0769 -0.01,0.02 0,0.0446 -0.017,0.0602 -0.01,0.01 0.01,-0.0335 0,-0.0389 -0.1714,-0.0794 -0.3459,-0.15512 -0.5277,-0.20646 -0.01,-0.002 -0.088,0.13 0,-0.003 0.2099,-0.3666 0.4222,-0.73267 0.6072,-1.11255 0.1266,-0.26554 0.2468,-0.53458 0.3444,-0.81231 0.051,0.10281 0.1176,0.23919 0.1978,0.2848 0.1469,0.0835 0.2311,0.0108 0.3123,-0.0648 0,-0.002 0,0.002 -0.01,0.002 -0.012,0.0167 -0.025,0.0333 -0.037,0.0499 -0.057,0.0689 -0.1177,0.12935 -0.1838,0.18921 -0.01,0.006 -0.017,0.0277 -0.022,0.0194 -0.104,-0.1706 -0.1915,-0.35071 -0.2872,-0.52606 -0.033,0.0126 -0.066,0.0253 -0.098,0.0377 0,0.002 0.01,-0.002 0.01,-0.004 0.014,-0.01 0.028,-0.0193 0.042,-0.0294 0.091,-0.0658 0.1787,-0.13591 0.2674,-0.20469 0.256,-0.19373 0.4967,-0.40787 0.7655,-0.58477 0.1067,-0.0768 0.6273,-0.47708 0.7659,-0.33859 0.1203,0.12022 0.1066,0.32311 0.1599,0.48465 -0.1616,0.20456 -0.3741,0.36407 -0.5415,0.56427 -0.083,0.0916 -0.073,0.0746 -0.1394,0.16894 -0.012,0.0165 -0.023,0.0336 -0.034,0.0508 -0.01,0.009 -0.012,0.0363 -0.015,0.0266 -0.079,-0.27595 0.2875,0.23121 -0.2202,-0.32679 -0.073,0.003 -0.1399,-0.0218 -0.1956,0.0214 -0.011,0.008 0.024,-0.0124 0.035,-0.0207 0.029,-0.0218 0.045,-0.0394 0.073,-0.0655 0.095,-0.0898 0.1932,-0.17725 0.2791,-0.27617 0.063,-0.0678 0.1199,-0.14102 0.1604,-0.22463 0.052,-0.12416 0.07,-0.25898 0.1258,-0.3819 0.095,-0.20234 0.2083,-0.39515 0.3221,-0.58712 0.1671,-0.27356 0.3222,-0.5559 0.5224,-0.80744 0.08,-0.12652 0.045,-0.0663 0.1143,-0.19288 0.011,-0.0208 0.023,-0.0414 0.034,-0.0625 0.01,-0.017 0.01,-0.0599 0.025,-0.0519 0.1875,0.0867 0.3546,0.21216 0.536,0.31107 0,0.003 0.01,-0.009 0.01,-0.014 -0.072,0.099 -0.1074,0.22053 -0.1845,0.31651 -0.08,0.11269 -0.1555,0.22756 -0.2295,0.3442 -0.067,0.0955 -0.113,0.20213 -0.1647,0.30656 -0.059,0.10189 -0.1226,0.20022 -0.1869,0.29852 -0.04,0.0743 -0.074,0.14294 -0.082,0.22832 -0.016,0.0725 -0.01,0.12791 -0.051,0.0372 -0.07,-0.0825 -0.1782,-0.10391 -0.2742,-0.048 0.064,-0.033 0.1313,-0.0552 0.194,-0.0903 0.048,-0.023 0.093,-0.0512 0.1412,-0.0735 0.014,-0.008 0.053,-0.0371 0.053,-0.0369 0,0.002 -0.01,0.0147 0,0.0135 0.01,-0.002 0.01,-0.01 0.01,-0.0149 0.041,-0.12418 0.094,-0.242 0.1705,-0.34858 0.072,-0.12226 0.1393,-0.24732 0.1967,-0.37709 0.1001,-0.22447 0.178,-0.45751 0.2722,-0.68453 0.092,-0.23282 0.1726,-0.47173 0.3127,-0.68155 0.043,-0.0742 0.1861,-0.3013 0.2704,-0.32913 0.083,-0.0273 0.171,-0.0348 0.2565,-0.0521 0.084,0.0845 0.1917,0.15083 0.2525,0.25343 0.065,0.10937 -0.078,0.3244 -0.1406,0.41352 -0.062,0.0873 -0.1111,0.18342 -0.1758,0.26927 -0.073,0.10381 -0.1536,0.19995 -0.2423,0.29059 -0.096,0.10488 -0.1953,0.20553 -0.3016,0.29971 -0.092,0.0756 -0.1829,0.15174 -0.2743,0.22769 -0.085,0.0665 -0.1715,0.13098 -0.2481,0.20717 -0.071,0.0827 -0.1248,0.17649 -0.1797,0.27066 -0.033,0.0632 -0.057,0.13042 -0.089,0.19391 0,0.002 0,-0.003 0,-0.004 -0.01,0.0283 0,-0.008 -0.012,0.0616 -0.013,0.0645 -0.035,0.12639 -0.059,0.18763 -0.045,0.11159 -0.086,0.22571 -0.1545,0.32559 -0.098,0.12017 -0.2158,0.21543 -0.3499,0.29351 -0.1004,0.0597 -0.2033,0.1143 -0.3064,0.16891 -0.084,0.0482 -0.1739,0.0862 -0.2525,0.14396 -0.058,0.0354 -0.1228,0.0609 -0.168,0.11324 -0.065,0.0689 -0.1214,0.14468 -0.1814,0.21769 -0.07,0.0837 -0.1451,0.16249 -0.2085,0.25124 -0.079,0.10679 -0.1606,0.2124 -0.2576,0.30399 -0.062,0.0588 -0.1286,0.11219 -0.1795,0.18152 -0.043,0.0565 -0.079,0.11634 -0.1021,0.18433 -0.018,0.0372 -0.026,0.0779 -0.04,0.1167 -0.024,0.0671 -0.057,0.13071 -0.094,0.1914 -0.071,0.11266 -0.1371,0.22818 -0.2087,0.34054 -0.1182,0.17531 -0.258,0.33507 -0.4153,0.47668 -0.08,0.0656 -0.1663,0.14215 -0.266,0.17743 -0.1566,0.0555 -0.2948,0.0435 -0.4292,-0.10797 -0.058,-0.065 -0.041,-0.16898 -0.061,-0.25345 0.013,-0.0417 0.022,-0.0849 0.04,-0.12504 0.042,-0.0969 0.1272,-0.16593 0.1864,-0.25108 0.1933,-0.25946 0.055,-0.12838 0.5753,0.26742 0,0.002 0,0.003 -0.01,0.005 -0.059,0.0571 -0.1118,0.11929 -0.1603,0.18532 -0.01,0.0117 -0.019,0.0237 -0.029,0.0349 -0.012,0.0127 0,-0.0345 -0.011,0.004 -0.01,0.10434 -0.027,0.2077 -0.057,0.30857 -0.034,0.1302 -0.086,0.25246 -0.1448,0.37345 -0.077,0.15692 -0.1665,0.31055 -0.2954,0.43091 -0.3479,0.27838 -0.7416,-0.21374 -0.3936,-0.49212 z"
         id="path2352-7"
         style="opacity:1;fill:#ffffff;fill-opacity:1;stroke:none;stroke-width:0;stroke-linecap:round;stroke-linejoin:bevel;stroke-miterlimit:4;stroke-dasharray:none;stroke-opacity:1" />
    </g>
  </g>
</svg>
