# Blender v2.82 (sub 7) OBJ File: ''
# www.blender.org
mtllib untitled.mtl
o Cylinder
v -0.055111 0.000833 -0.883681
v 0.049583 -0.000000 -0.889473
v -0.055111 -0.171802 -0.866678
v 0.049583 -0.173528 -0.872382
v -0.055111 -0.337802 -0.816323
v 0.049583 -0.340386 -0.821765
v -0.055111 -0.490788 -0.734550
v 0.049582 -0.494165 -0.739569
v -0.055111 -0.624882 -0.624502
v 0.049582 -0.628952 -0.628952
v -0.055111 -0.734929 -0.490408
v 0.049582 -0.739569 -0.494164
v -0.055111 -0.816702 -0.337422
v 0.049582 -0.821765 -0.340386
v -0.055111 -0.867058 -0.171422
v 0.049582 -0.872382 -0.173528
v -0.055111 -0.884061 0.001212
v 0.049582 -0.889473 -0.000000
v -0.055111 -0.867058 0.173846
v 0.049582 -0.872382 0.173527
v -0.055111 -0.816702 0.339846
v 0.049582 -0.821766 0.340386
v -0.055111 -0.734929 0.492833
v 0.049582 -0.739569 0.494164
v -0.055111 -0.624882 0.626926
v 0.049582 -0.628952 0.628952
v -0.055111 -0.490788 0.736974
v 0.049582 -0.494164 0.739569
v -0.055111 -0.337801 0.818747
v 0.049583 -0.340386 0.821765
v -0.055111 -0.171801 0.869102
v 0.049583 -0.173527 0.872382
v -0.055111 0.000833 0.886105
v 0.049583 0.000000 0.889472
v -0.055111 0.173467 0.869102
v 0.049583 0.173528 0.872382
v -0.055111 0.339467 0.818747
v 0.049583 0.340387 0.821765
v -0.055111 0.492453 0.736974
v 0.049583 0.494165 0.739569
v -0.053851 0.629307 0.626332
v 0.049583 0.628952 0.628952
v -0.055111 0.736595 0.492832
v 0.049583 0.739570 0.494164
v -0.055111 0.818368 0.339846
v 0.049583 0.821766 0.340386
v -0.055111 0.868723 0.173845
v 0.049583 0.872382 0.173527
v -0.055111 0.885726 0.001211
v 0.049583 0.889473 -0.000001
v -0.055111 0.868723 -0.171423
v 0.049583 0.872381 -0.173528
v -0.055111 0.818367 -0.337423
v 0.049583 0.821765 -0.340387
v -0.055111 0.736594 -0.490409
v 0.049583 0.739569 -0.494165
v -0.055111 0.626546 -0.624503
v 0.049583 0.628951 -0.628953
v -0.055111 0.492452 -0.734550
v 0.049583 0.494163 -0.739570
v -0.055111 0.339465 -0.816323
v 0.049583 0.340385 -0.821766
v -0.055111 0.173465 -0.866678
v 0.049583 0.173526 -0.872382
v -0.072721 0.472191 0.698140
v -0.102685 0.000000 -1.000000
v 0.097315 -0.000000 -1.000000
v 0.097315 -0.195090 -0.980785
v -0.102685 -0.195090 -0.980785
v 0.097315 -0.382683 -0.923880
v -0.102685 -0.382683 -0.923880
v 0.097315 -0.555570 -0.831470
v -0.102685 -0.555570 -0.831470
v 0.097315 -0.707107 -0.707107
v -0.102685 -0.707107 -0.707107
v 0.097315 -0.831470 -0.555570
v -0.102685 -0.831470 -0.555570
v 0.097315 -0.923880 -0.382683
v -0.102685 -0.923880 -0.382683
v 0.097315 -0.980785 -0.195090
v -0.102685 -0.980785 -0.195090
v 0.097315 -1.000000 -0.000000
v -0.102685 -1.000000 -0.000000
v 0.097315 -0.980785 0.195090
v -0.102685 -0.980785 0.195090
v 0.097315 -0.923880 0.382683
v -0.102685 -0.923880 0.382683
v 0.097315 -0.831470 0.555570
v -0.102685 -0.831470 0.555570
v 0.097315 -0.707107 0.707107
v -0.102685 -0.707107 0.707107
v 0.097315 -0.555570 0.831470
v -0.102685 -0.555570 0.831470
v 0.097315 -0.382683 0.923880
v -0.102685 -0.382683 0.923880
v 0.097315 -0.195090 0.980785
v -0.102685 -0.195090 0.980785
v 0.097315 0.000000 1.000000
v -0.102685 0.000000 1.000000
v 0.097315 0.195091 0.980785
v -0.102685 0.195091 0.980785
v 0.097315 0.382684 0.923879
v -0.102685 0.382684 0.923879
v 0.097315 0.555571 0.831469
v -0.102685 0.555571 0.831469
v 0.098149 0.708161 0.706880
v -0.101028 0.709200 0.706656
v 0.097315 0.831470 0.555570
v -0.102685 0.831470 0.555570
v 0.097315 0.923880 0.382683
v -0.102685 0.923880 0.382683
v 0.097315 0.980785 0.195089
v -0.102685 0.980785 0.195089
v 0.097315 1.000000 -0.000001
v -0.102685 1.000000 -0.000001
v 0.097315 0.980785 -0.195091
v -0.102685 0.980785 -0.195091
v 0.097315 0.923879 -0.382684
v -0.102685 0.923879 -0.382684
v 0.097315 0.831469 -0.555571
v -0.102685 0.831469 -0.555571
v 0.097315 0.707106 -0.707108
v -0.102685 0.707106 -0.707108
v 0.097315 0.555569 -0.831470
v -0.102685 0.555569 -0.831470
v 0.097315 0.382682 -0.923880
v -0.102685 0.382682 -0.923880
v 0.097315 0.195089 -0.980786
v -0.102685 0.195089 -0.980786
vt 1.000000 0.831096
vt 1.000000 1.000000
vt 0.968750 1.000000
vt 0.968750 0.831096
vt 0.937500 1.000000
vt 0.937500 0.831096
vt 0.906250 1.000000
vt 0.906250 0.831096
vt 0.875000 1.000000
vt 0.875000 0.831096
vt 0.843750 1.000000
vt 0.843750 0.831096
vt 0.812500 1.000000
vt 0.812500 0.831096
vt 0.781250 1.000000
vt 0.781250 0.831096
vt 0.750000 1.000000
vt 0.750000 0.831096
vt 0.718750 1.000000
vt 0.718750 0.831096
vt 0.687500 1.000000
vt 0.687500 0.831096
vt 0.656250 1.000000
vt 0.656250 0.831096
vt 0.625000 1.000000
vt 0.625000 0.831096
vt 0.593750 1.000000
vt 0.593750 0.831096
vt 0.562500 1.000000
vt 0.562500 0.831096
vt 0.531250 1.000000
vt 0.531250 0.831096
vt 0.500000 1.000000
vt 0.500000 0.831096
vt 0.468750 1.000000
vt 0.468750 0.831096
vt 0.437500 1.000000
vt 0.437500 0.831096
vt 0.406250 1.000000
vt 0.406250 0.831096
vt 0.375000 1.000000
vt 0.375000 0.831096
vt 0.343750 1.000000
vt 0.343750 0.831096
vt 0.312500 1.000000
vt 0.312500 0.831096
vt 0.281250 1.000000
vt 0.281250 0.831096
vt 0.250000 1.000000
vt 0.250000 0.831096
vt 0.218750 1.000000
vt 0.218750 0.831096
vt 0.187500 1.000000
vt 0.187500 0.831096
vt 0.156250 1.000000
vt 0.156250 0.831096
vt 0.125000 1.000000
vt 0.125000 0.831096
vt 0.093750 1.000000
vt 0.093750 0.831096
vt 0.062500 1.000000
vt 0.062500 0.831096
vt 0.296822 0.485388
vt 0.250000 0.490000
vt 0.203179 0.485389
vt 0.158156 0.471731
vt 0.116663 0.449553
vt 0.080295 0.419706
vt 0.050447 0.383337
vt 0.028269 0.341844
vt 0.014612 0.296822
vt 0.010000 0.250000
vt 0.014611 0.203179
vt 0.028269 0.158156
vt 0.050447 0.116663
vt 0.080294 0.080294
vt 0.116663 0.050447
vt 0.158156 0.028269
vt 0.203178 0.014612
vt 0.250000 0.010000
vt 0.296822 0.014612
vt 0.341844 0.028269
vt 0.383337 0.050447
vt 0.419706 0.080294
vt 0.449553 0.116663
vt 0.471731 0.158156
vt 0.485388 0.203178
vt 0.490000 0.250000
vt 0.485388 0.296822
vt 0.471731 0.341844
vt 0.449553 0.383337
vt 0.419706 0.419706
vt 0.383337 0.449553
vt 0.341844 0.471731
vt 0.031250 1.000000
vt 0.031250 0.831096
vt 0.000000 1.000000
vt 0.000000 0.831096
vt 0.750000 0.490000
vt 0.796822 0.485388
vt 0.841844 0.471731
vt 0.883337 0.449553
vt 0.919706 0.419706
vt 0.949553 0.383337
vt 0.971731 0.341844
vt 0.985388 0.296822
vt 0.990000 0.250000
vt 0.985388 0.203178
vt 0.971731 0.158156
vt 0.949553 0.116663
vt 0.919706 0.080294
vt 0.883337 0.050447
vt 0.841844 0.028269
vt 0.796822 0.014612
vt 0.750000 0.010000
vt 0.703178 0.014612
vt 0.658156 0.028269
vt 0.616663 0.050447
vt 0.580294 0.080294
vt 0.550447 0.116663
vt 0.528269 0.158156
vt 0.514611 0.203179
vt 0.510000 0.250000
vt 0.514612 0.296822
vt 0.528269 0.341844
vt 0.550447 0.383337
vt 0.580295 0.419706
vt 0.616663 0.449553
vt 0.658156 0.471731
vt 0.703179 0.485389
vt 0.031250 0.500000
vt 0.031250 0.664429
vt 0.000000 0.664429
vt 0.000000 0.500000
vt 0.062500 0.500000
vt 0.062500 0.664429
vt 0.093750 0.500000
vt 0.093750 0.664429
vt 0.125000 0.500000
vt 0.125000 0.664429
vt 0.156250 0.500000
vt 0.156250 0.664429
vt 0.187500 0.500000
vt 0.187500 0.664429
vt 0.218750 0.500000
vt 0.218750 0.664429
vt 0.250000 0.500000
vt 0.250000 0.664429
vt 0.281250 0.500000
vt 0.281250 0.664429
vt 0.312500 0.500000
vt 0.312500 0.664429
vt 0.343750 0.500000
vt 0.343750 0.664429
vt 0.375000 0.500000
vt 0.375000 0.664429
vt 0.406250 0.500000
vt 0.406250 0.664429
vt 0.437500 0.500000
vt 0.437500 0.664429
vt 0.468750 0.500000
vt 0.468750 0.664429
vt 0.500000 0.500000
vt 0.500000 0.664429
vt 0.531250 0.500000
vt 0.531250 0.664429
vt 0.562500 0.500000
vt 0.562500 0.664429
vt 0.593750 0.500000
vt 0.593750 0.664429
vt 0.625000 0.500000
vt 0.625000 0.664429
vt 0.656250 0.500000
vt 0.656250 0.664429
vt 0.687500 0.500000
vt 0.687500 0.664429
vt 0.718750 0.500000
vt 0.718750 0.664429
vt 0.750000 0.500000
vt 0.750000 0.664429
vt 0.781250 0.500000
vt 0.781250 0.664429
vt 0.812500 0.500000
vt 0.812500 0.664429
vt 0.843750 0.500000
vt 0.843750 0.664429
vt 0.875000 0.500000
vt 0.875000 0.664429
vt 0.906250 0.500000
vt 0.906250 0.664429
vt 0.937500 0.500000
vt 0.937500 0.664429
vt 0.968750 0.500000
vt 0.968750 0.664429
vt 1.000000 0.500000
vt 1.000000 0.664429
vn 0.9173 0.0390 0.3962
vn 0.9173 0.1156 0.3809
vn 0.9173 0.1877 0.3511
vn 0.9173 0.2525 0.3077
vn 0.9173 0.3077 0.2525
vn 0.9173 0.3511 0.1877
vn 0.9173 0.3809 0.1156
vn 0.9173 0.3962 0.0390
vn 0.9173 0.3962 -0.0390
vn 0.9173 0.3809 -0.1156
vn 0.9173 0.3511 -0.1877
vn 0.9173 0.3077 -0.2525
vn 0.9173 0.2525 -0.3077
vn 0.9173 0.1877 -0.3511
vn 0.9173 0.1156 -0.3809
vn 0.9173 0.0390 -0.3962
vn 0.9173 -0.0390 -0.3962
vn 0.9173 -0.1156 -0.3809
vn 0.9173 -0.1877 -0.3511
vn 0.9164 -0.2551 -0.3084
vn 0.9165 -0.3083 -0.2548
vn 0.9173 -0.3511 -0.1877
vn 0.9173 -0.3809 -0.1156
vn 0.9173 -0.3962 -0.0390
vn 0.9173 -0.3962 0.0390
vn 0.9173 -0.3809 0.1156
vn 0.9173 -0.3511 0.1877
vn 0.9173 -0.3077 0.2525
vn 0.9173 -0.2525 0.3077
vn 0.9173 -0.1877 0.3511
vn 1.0000 -0.0000 0.0000
vn 0.9173 -0.1156 0.3809
vn 0.9173 -0.0390 0.3962
vn -1.0000 0.0001 0.0001
vn -0.9248 -0.0373 0.3785
vn 0.0000 0.0980 -0.9952
vn -0.9246 -0.1106 0.3645
vn 0.0000 0.2903 -0.9569
vn -0.9243 -0.1799 0.3366
vn 0.0000 0.4714 -0.8819
vn -0.9240 -0.2426 0.2956
vn 0.0000 0.6344 -0.7730
vn -0.9237 -0.2962 0.2431
vn 0.0000 0.7730 -0.6344
vn -0.9233 -0.3387 0.1810
vn 0.0000 0.8819 -0.4714
vn -0.9230 -0.3682 0.1117
vn 0.0000 0.9569 -0.2903
vn -0.9227 -0.3837 0.0378
vn 0.0000 0.9952 -0.0980
vn -0.9224 -0.3844 -0.0379
vn 0.0000 0.9952 0.0980
vn -0.9221 -0.3702 -0.1123
vn 0.0000 0.9569 0.2903
vn -0.9220 -0.3416 -0.1826
vn 0.0000 0.8819 0.4714
vn -0.9221 -0.3058 -0.2372
vn 0.0017 0.7763 0.6304
vn -0.9221 -0.2380 -0.3051
vn 0.0012 0.6315 0.7754
vn -0.9218 -0.1828 -0.3420
vn 0.0000 0.4714 0.8819
vn -0.9218 -0.1125 -0.3709
vn 0.0000 0.2903 0.9569
vn -0.9220 -0.0380 -0.3854
vn 0.0000 0.0980 0.9952
vn -0.9222 0.0379 -0.3849
vn -0.0000 -0.0980 0.9952
vn -0.9224 0.1121 -0.3696
vn 0.0000 -0.2903 0.9569
vn -0.9227 0.1817 -0.3400
vn 0.0000 -0.4714 0.8819
vn -0.9230 0.2441 -0.2974
vn 0.0000 -0.6344 0.7730
vn -0.9234 0.2968 -0.2435
vn 0.0000 -0.7730 0.6344
vn -0.9237 0.3378 -0.1806
vn 0.0000 -0.8819 0.4714
vn -0.9240 0.3658 -0.1110
vn 0.0000 -0.9569 0.2903
vn -0.9244 0.3797 -0.0374
vn 0.0000 -0.9952 0.0980
vn -0.9246 0.3790 0.0373
vn 0.0000 -0.9952 -0.0980
vn -0.9249 0.3639 0.1104
vn 0.0000 -0.9569 -0.2903
vn -0.9250 0.3350 0.1791
vn 0.0000 -0.8819 -0.4714
vn -0.9252 0.2934 0.2408
vn 0.0000 -0.7730 -0.6344
vn -0.9252 0.2407 0.2933
vn 0.0000 -0.6344 -0.7730
vn -0.9252 0.1789 0.3346
vn 0.0000 -0.4714 -0.8819
vn -0.9252 0.1102 0.3632
vn 0.0000 -0.2903 -0.9569
vn -0.9250 0.0372 0.3781
vn -0.0000 -0.0980 -0.9952
usemtl None
s off
f 67/1/1 2/2/1 4/3/1 68/4/1
f 68/4/2 4/3/2 6/5/2 70/6/2
f 70/6/3 6/5/3 8/7/3 72/8/3
f 72/8/4 8/7/4 10/9/4 74/10/4
f 74/10/5 10/9/5 12/11/5 76/12/5
f 76/12/6 12/11/6 14/13/6 78/14/6
f 78/14/7 14/13/7 16/15/7 80/16/7
f 80/16/8 16/15/8 18/17/8 82/18/8
f 82/18/9 18/17/9 20/19/9 84/20/9
f 84/20/10 20/19/10 22/21/10 86/22/10
f 86/22/11 22/21/11 24/23/11 88/24/11
f 88/24/12 24/23/12 26/25/12 90/26/12
f 90/26/13 26/25/13 28/27/13 92/28/13
f 92/28/14 28/27/14 30/29/14 94/30/14
f 94/30/15 30/29/15 32/31/15 96/32/15
f 96/32/16 32/31/16 34/33/16 98/34/16
f 98/34/17 34/33/17 36/35/17 100/36/17
f 100/36/18 36/35/18 38/37/18 102/38/18
f 102/38/19 38/37/19 40/39/19 104/40/19
f 104/40/20 40/39/20 42/41/20 106/42/20
f 106/42/21 42/41/21 44/43/21 108/44/21
f 108/44/22 44/43/22 46/45/22 110/46/22
f 110/46/23 46/45/23 48/47/23 112/48/23
f 112/48/24 48/47/24 50/49/24 114/50/24
f 114/50/25 50/49/25 52/51/25 116/52/25
f 116/52/26 52/51/26 54/53/26 118/54/26
f 118/54/27 54/53/27 56/55/27 120/56/27
f 120/56/28 56/55/28 58/57/28 122/58/28
f 122/58/29 58/57/29 60/59/29 124/60/29
f 124/60/30 60/59/30 62/61/30 126/62/30
f 4/63/31 2/64/31 64/65/31 62/66/31 60/67/31 58/68/31 56/69/31 54/70/31 52/71/31 50/72/31 48/73/31 46/74/31 44/75/31 42/76/31 40/77/31 38/78/31 36/79/31 34/80/31 32/81/31 30/82/31 28/83/31 26/84/31 24/85/31 22/86/31 20/87/31 18/88/31 16/89/31 14/90/31 12/91/31 10/92/31 8/93/31 6/94/31
f 126/62/32 62/61/32 64/95/32 128/96/32
f 128/96/33 64/95/33 2/97/33 67/98/33
f 1/99/34 3/100/34 5/101/34 7/102/34 9/103/34 11/104/34 13/105/34 15/106/34 17/107/34 19/108/34 21/109/34 23/110/34 25/111/34 27/112/34 29/113/34 31/114/34 33/115/34 35/116/34 37/117/34 39/118/34 41/119/34 43/120/34 45/121/34 47/122/34 49/123/34 51/124/34 53/125/34 55/126/34 57/127/34 59/128/34 61/129/34 63/130/34
f 63/131/35 129/132/35 66/133/35 1/134/35
f 129/132/36 128/96/36 67/98/36 66/133/36
f 61/135/37 127/136/37 129/132/37 63/131/37
f 127/136/38 126/62/38 128/96/38 129/132/38
f 59/137/39 125/138/39 127/136/39 61/135/39
f 125/138/40 124/60/40 126/62/40 127/136/40
f 57/139/41 123/140/41 125/138/41 59/137/41
f 123/140/42 122/58/42 124/60/42 125/138/42
f 55/141/43 121/142/43 123/140/43 57/139/43
f 121/142/44 120/56/44 122/58/44 123/140/44
f 53/143/45 119/144/45 121/142/45 55/141/45
f 119/144/46 118/54/46 120/56/46 121/142/46
f 51/145/47 117/146/47 119/144/47 53/143/47
f 117/146/48 116/52/48 118/54/48 119/144/48
f 49/147/49 115/148/49 117/146/49 51/145/49
f 115/148/50 114/50/50 116/52/50 117/146/50
f 47/149/51 113/150/51 115/148/51 49/147/51
f 113/150/52 112/48/52 114/50/52 115/148/52
f 45/151/53 111/152/53 113/150/53 47/149/53
f 111/152/54 110/46/54 112/48/54 113/150/54
f 43/153/55 109/154/55 111/152/55 45/151/55
f 109/154/56 108/44/56 110/46/56 111/152/56
f 41/155/57 107/156/57 109/154/57 43/153/57
f 107/156/58 106/42/58 108/44/58 109/154/58
f 39/157/59 105/158/59 107/156/59 41/155/59
f 105/158/60 104/40/60 106/42/60 107/156/60
f 37/159/61 103/160/61 105/158/61 39/157/61
f 103/160/62 102/38/62 104/40/62 105/158/62
f 35/161/63 101/162/63 103/160/63 37/159/63
f 101/162/64 100/36/64 102/38/64 103/160/64
f 33/163/65 99/164/65 101/162/65 35/161/65
f 99/164/66 98/34/66 100/36/66 101/162/66
f 31/165/67 97/166/67 99/164/67 33/163/67
f 97/166/68 96/32/68 98/34/68 99/164/68
f 29/167/69 95/168/69 97/166/69 31/165/69
f 95/168/70 94/30/70 96/32/70 97/166/70
f 27/169/71 93/170/71 95/168/71 29/167/71
f 93/170/72 92/28/72 94/30/72 95/168/72
f 25/171/73 91/172/73 93/170/73 27/169/73
f 91/172/74 90/26/74 92/28/74 93/170/74
f 23/173/75 89/174/75 91/172/75 25/171/75
f 89/174/76 88/24/76 90/26/76 91/172/76
f 21/175/77 87/176/77 89/174/77 23/173/77
f 87/176/78 86/22/78 88/24/78 89/174/78
f 19/177/79 85/178/79 87/176/79 21/175/79
f 85/178/80 84/20/80 86/22/80 87/176/80
f 17/179/81 83/180/81 85/178/81 19/177/81
f 83/180/82 82/18/82 84/20/82 85/178/82
f 15/181/83 81/182/83 83/180/83 17/179/83
f 81/182/84 80/16/84 82/18/84 83/180/84
f 13/183/85 79/184/85 81/182/85 15/181/85
f 79/184/86 78/14/86 80/16/86 81/182/86
f 11/185/87 77/186/87 79/184/87 13/183/87
f 77/186/88 76/12/88 78/14/88 79/184/88
f 9/187/89 75/188/89 77/186/89 11/185/89
f 75/188/90 74/10/90 76/12/90 77/186/90
f 7/189/91 73/190/91 75/188/91 9/187/91
f 73/190/92 72/8/92 74/10/92 75/188/92
f 5/191/93 71/192/93 73/190/93 7/189/93
f 71/192/94 70/6/94 72/8/94 73/190/94
f 3/193/95 69/194/95 71/192/95 5/191/95
f 69/194/96 68/4/96 70/6/96 71/192/96
f 1/195/97 66/196/97 69/194/97 3/193/97
f 66/196/98 67/1/98 68/4/98 69/194/98
l 39 65
